<mxfile host="app.diagrams.net" modified="2023-02-06T10:06:49.366Z" agent="5.0 (Windows)" etag="XqL1XaHdha4i5Nrx-Fa8" version="20.8.5" type="github" pages="3">
  <diagram id="OaHjyGjdNP-GCPTDcom8" name="Page-1">
    <mxGraphModel dx="1632" dy="1162" grid="0" gridSize="10" guides="1" tooltips="1" connect="1" arrows="1" fold="1" page="0" pageScale="1" pageWidth="827" pageHeight="1169" math="0" shadow="0">
      <root>
        <mxCell id="0" />
        <mxCell id="1" parent="0" />
        <mxCell id="nD4syaO1w29k3vmpNwM7-14" value="CONTRATTO" style="shape=table;startSize=30;container=1;collapsible=1;childLayout=tableLayout;fixedRows=1;rowLines=0;fontStyle=1;align=center;resizeLast=1;movable=1;resizable=1;rotatable=1;deletable=1;editable=1;connectable=1;" parent="1" vertex="1">
          <mxGeometry x="715" y="-20" width="230" height="360" as="geometry">
            <mxRectangle x="720" y="-20" width="110" height="30" as="alternateBounds" />
          </mxGeometry>
        </mxCell>
        <mxCell id="nD4syaO1w29k3vmpNwM7-15" value="" style="shape=tableRow;horizontal=0;startSize=0;swimlaneHead=0;swimlaneBody=0;fillColor=none;collapsible=0;dropTarget=0;points=[[0,0.5],[1,0.5]];portConstraint=eastwest;top=0;left=0;right=0;bottom=1;movable=1;resizable=1;rotatable=1;deletable=1;editable=1;connectable=1;" parent="nD4syaO1w29k3vmpNwM7-14" vertex="1">
          <mxGeometry y="30" width="230" height="30" as="geometry" />
        </mxCell>
        <mxCell id="nD4syaO1w29k3vmpNwM7-16" value="PK" style="shape=partialRectangle;connectable=1;fillColor=none;top=0;left=0;bottom=0;right=0;fontStyle=1;overflow=hidden;movable=1;resizable=1;rotatable=1;deletable=1;editable=1;" parent="nD4syaO1w29k3vmpNwM7-15" vertex="1">
          <mxGeometry width="30" height="30" as="geometry">
            <mxRectangle width="30" height="30" as="alternateBounds" />
          </mxGeometry>
        </mxCell>
        <mxCell id="nD4syaO1w29k3vmpNwM7-17" value="CODICE CONTRATTO" style="shape=partialRectangle;connectable=1;fillColor=none;top=0;left=0;bottom=0;right=0;align=left;spacingLeft=6;fontStyle=5;overflow=hidden;movable=1;resizable=1;rotatable=1;deletable=1;editable=1;" parent="nD4syaO1w29k3vmpNwM7-15" vertex="1">
          <mxGeometry x="30" width="200" height="30" as="geometry">
            <mxRectangle width="200" height="30" as="alternateBounds" />
          </mxGeometry>
        </mxCell>
        <mxCell id="dIEBpJOMzmCvZlWTN5sd-136" value="" style="shape=tableRow;horizontal=0;startSize=0;swimlaneHead=0;swimlaneBody=0;fillColor=none;collapsible=0;dropTarget=0;points=[[0,0.5],[1,0.5]];portConstraint=eastwest;top=0;left=0;right=0;bottom=0;movable=1;resizable=1;rotatable=1;deletable=1;editable=1;connectable=1;" parent="nD4syaO1w29k3vmpNwM7-14" vertex="1">
          <mxGeometry y="60" width="230" height="30" as="geometry" />
        </mxCell>
        <mxCell id="dIEBpJOMzmCvZlWTN5sd-137" value="" style="shape=partialRectangle;connectable=1;fillColor=none;top=0;left=0;bottom=0;right=0;editable=1;overflow=hidden;movable=1;resizable=1;rotatable=1;deletable=1;" parent="dIEBpJOMzmCvZlWTN5sd-136" vertex="1">
          <mxGeometry width="30" height="30" as="geometry">
            <mxRectangle width="30" height="30" as="alternateBounds" />
          </mxGeometry>
        </mxCell>
        <mxCell id="dIEBpJOMzmCvZlWTN5sd-138" value="TIPOLOGIA CONTRATTO" style="shape=partialRectangle;connectable=1;fillColor=none;top=0;left=0;bottom=0;right=0;align=left;spacingLeft=6;overflow=hidden;movable=1;resizable=1;rotatable=1;deletable=1;editable=1;" parent="dIEBpJOMzmCvZlWTN5sd-136" vertex="1">
          <mxGeometry x="30" width="200" height="30" as="geometry">
            <mxRectangle width="200" height="30" as="alternateBounds" />
          </mxGeometry>
        </mxCell>
        <mxCell id="nD4syaO1w29k3vmpNwM7-18" value="" style="shape=tableRow;horizontal=0;startSize=0;swimlaneHead=0;swimlaneBody=0;fillColor=none;collapsible=0;dropTarget=0;points=[[0,0.5],[1,0.5]];portConstraint=eastwest;top=0;left=0;right=0;bottom=0;movable=1;resizable=1;rotatable=1;deletable=1;editable=1;connectable=1;" parent="nD4syaO1w29k3vmpNwM7-14" vertex="1">
          <mxGeometry y="90" width="230" height="30" as="geometry" />
        </mxCell>
        <mxCell id="nD4syaO1w29k3vmpNwM7-19" value="" style="shape=partialRectangle;connectable=1;fillColor=none;top=0;left=0;bottom=0;right=0;editable=1;overflow=hidden;movable=1;resizable=1;rotatable=1;deletable=1;" parent="nD4syaO1w29k3vmpNwM7-18" vertex="1">
          <mxGeometry width="30" height="30" as="geometry">
            <mxRectangle width="30" height="30" as="alternateBounds" />
          </mxGeometry>
        </mxCell>
        <mxCell id="nD4syaO1w29k3vmpNwM7-20" value="INDIRIZZO DEL LOCALE" style="shape=partialRectangle;connectable=1;fillColor=none;top=0;left=0;bottom=0;right=0;align=left;spacingLeft=6;overflow=hidden;movable=1;resizable=1;rotatable=1;deletable=1;editable=1;" parent="nD4syaO1w29k3vmpNwM7-18" vertex="1">
          <mxGeometry x="30" width="200" height="30" as="geometry">
            <mxRectangle width="200" height="30" as="alternateBounds" />
          </mxGeometry>
        </mxCell>
        <mxCell id="nD4syaO1w29k3vmpNwM7-21" value="" style="shape=tableRow;horizontal=0;startSize=0;swimlaneHead=0;swimlaneBody=0;fillColor=none;collapsible=0;dropTarget=0;points=[[0,0.5],[1,0.5]];portConstraint=eastwest;top=0;left=0;right=0;bottom=0;movable=1;resizable=1;rotatable=1;deletable=1;editable=1;connectable=1;" parent="nD4syaO1w29k3vmpNwM7-14" vertex="1">
          <mxGeometry y="120" width="230" height="30" as="geometry" />
        </mxCell>
        <mxCell id="nD4syaO1w29k3vmpNwM7-22" value="" style="shape=partialRectangle;connectable=1;fillColor=none;top=0;left=0;bottom=0;right=0;editable=1;overflow=hidden;movable=1;resizable=1;rotatable=1;deletable=1;" parent="nD4syaO1w29k3vmpNwM7-21" vertex="1">
          <mxGeometry width="30" height="30" as="geometry">
            <mxRectangle width="30" height="30" as="alternateBounds" />
          </mxGeometry>
        </mxCell>
        <mxCell id="nD4syaO1w29k3vmpNwM7-23" value="DATA STIPULA CONTRATTO" style="shape=partialRectangle;connectable=1;fillColor=none;top=0;left=0;bottom=0;right=0;align=left;spacingLeft=6;overflow=hidden;movable=1;resizable=1;rotatable=1;deletable=1;editable=1;" parent="nD4syaO1w29k3vmpNwM7-21" vertex="1">
          <mxGeometry x="30" width="200" height="30" as="geometry">
            <mxRectangle width="200" height="30" as="alternateBounds" />
          </mxGeometry>
        </mxCell>
        <mxCell id="nD4syaO1w29k3vmpNwM7-24" value="" style="shape=tableRow;horizontal=0;startSize=0;swimlaneHead=0;swimlaneBody=0;fillColor=none;collapsible=0;dropTarget=0;points=[[0,0.5],[1,0.5]];portConstraint=eastwest;top=0;left=0;right=0;bottom=0;movable=1;resizable=1;rotatable=1;deletable=1;editable=1;connectable=1;" parent="nD4syaO1w29k3vmpNwM7-14" vertex="1">
          <mxGeometry y="150" width="230" height="30" as="geometry" />
        </mxCell>
        <mxCell id="nD4syaO1w29k3vmpNwM7-25" value="0,1" style="shape=partialRectangle;connectable=1;fillColor=none;top=0;left=0;bottom=0;right=0;editable=1;overflow=hidden;movable=1;resizable=1;rotatable=1;deletable=1;" parent="nD4syaO1w29k3vmpNwM7-24" vertex="1">
          <mxGeometry width="30" height="30" as="geometry">
            <mxRectangle width="30" height="30" as="alternateBounds" />
          </mxGeometry>
        </mxCell>
        <mxCell id="nD4syaO1w29k3vmpNwM7-26" value="DATA INIZIO FORNITURA" style="shape=partialRectangle;connectable=1;fillColor=none;top=0;left=0;bottom=0;right=0;align=left;spacingLeft=6;overflow=hidden;movable=1;resizable=1;rotatable=1;deletable=1;editable=1;" parent="nD4syaO1w29k3vmpNwM7-24" vertex="1">
          <mxGeometry x="30" width="200" height="30" as="geometry">
            <mxRectangle width="200" height="30" as="alternateBounds" />
          </mxGeometry>
        </mxCell>
        <mxCell id="nD4syaO1w29k3vmpNwM7-161" value="" style="shape=tableRow;horizontal=0;startSize=0;swimlaneHead=0;swimlaneBody=0;fillColor=none;collapsible=0;dropTarget=0;points=[[0,0.5],[1,0.5]];portConstraint=eastwest;top=0;left=0;right=0;bottom=0;movable=1;resizable=1;rotatable=1;deletable=1;editable=1;connectable=1;" parent="nD4syaO1w29k3vmpNwM7-14" vertex="1">
          <mxGeometry y="180" width="230" height="30" as="geometry" />
        </mxCell>
        <mxCell id="nD4syaO1w29k3vmpNwM7-162" value="FK" style="shape=partialRectangle;connectable=1;fillColor=none;top=0;left=0;bottom=0;right=0;editable=1;overflow=hidden;movable=1;resizable=1;rotatable=1;deletable=1;" parent="nD4syaO1w29k3vmpNwM7-161" vertex="1">
          <mxGeometry width="30" height="30" as="geometry">
            <mxRectangle width="30" height="30" as="alternateBounds" />
          </mxGeometry>
        </mxCell>
        <mxCell id="nD4syaO1w29k3vmpNwM7-163" value="CODICE CLIENTE" style="shape=partialRectangle;connectable=1;fillColor=none;top=0;left=0;bottom=0;right=0;align=left;spacingLeft=6;overflow=hidden;movable=1;resizable=1;rotatable=1;deletable=1;editable=1;" parent="nD4syaO1w29k3vmpNwM7-161" vertex="1">
          <mxGeometry x="30" width="200" height="30" as="geometry">
            <mxRectangle width="200" height="30" as="alternateBounds" />
          </mxGeometry>
        </mxCell>
        <mxCell id="nD4syaO1w29k3vmpNwM7-164" value="" style="shape=tableRow;horizontal=0;startSize=0;swimlaneHead=0;swimlaneBody=0;fillColor=none;collapsible=0;dropTarget=0;points=[[0,0.5],[1,0.5]];portConstraint=eastwest;top=0;left=0;right=0;bottom=0;movable=1;resizable=1;rotatable=1;deletable=1;editable=1;connectable=1;" parent="nD4syaO1w29k3vmpNwM7-14" vertex="1">
          <mxGeometry y="210" width="230" height="40" as="geometry" />
        </mxCell>
        <mxCell id="nD4syaO1w29k3vmpNwM7-165" value="" style="shape=partialRectangle;connectable=1;fillColor=none;top=0;left=0;bottom=0;right=0;editable=1;overflow=hidden;movable=1;resizable=1;rotatable=1;deletable=1;" parent="nD4syaO1w29k3vmpNwM7-164" vertex="1">
          <mxGeometry width="30" height="40" as="geometry">
            <mxRectangle width="30" height="40" as="alternateBounds" />
          </mxGeometry>
        </mxCell>
        <mxCell id="nD4syaO1w29k3vmpNwM7-166" value="K.W. MASSIMI" style="shape=partialRectangle;connectable=1;fillColor=none;top=0;left=0;bottom=0;right=0;align=left;spacingLeft=6;overflow=hidden;movable=1;resizable=1;rotatable=1;deletable=1;editable=1;" parent="nD4syaO1w29k3vmpNwM7-164" vertex="1">
          <mxGeometry x="30" width="200" height="40" as="geometry">
            <mxRectangle width="200" height="40" as="alternateBounds" />
          </mxGeometry>
        </mxCell>
        <mxCell id="nD4syaO1w29k3vmpNwM7-176" value="" style="shape=tableRow;horizontal=0;startSize=0;swimlaneHead=0;swimlaneBody=0;fillColor=none;collapsible=0;dropTarget=0;points=[[0,0.5],[1,0.5]];portConstraint=eastwest;top=0;left=0;right=0;bottom=0;" parent="nD4syaO1w29k3vmpNwM7-14" vertex="1">
          <mxGeometry y="250" width="230" height="60" as="geometry" />
        </mxCell>
        <mxCell id="nD4syaO1w29k3vmpNwM7-177" value="" style="shape=partialRectangle;connectable=0;fillColor=none;top=0;left=0;bottom=0;right=0;editable=1;overflow=hidden;" parent="nD4syaO1w29k3vmpNwM7-176" vertex="1">
          <mxGeometry width="30" height="60" as="geometry">
            <mxRectangle width="30" height="60" as="alternateBounds" />
          </mxGeometry>
        </mxCell>
        <mxCell id="nD4syaO1w29k3vmpNwM7-178" value="TEMPO MASSIMO INTERVENTO" style="shape=partialRectangle;connectable=0;fillColor=none;top=0;left=0;bottom=0;right=0;align=left;spacingLeft=6;overflow=hidden;" parent="nD4syaO1w29k3vmpNwM7-176" vertex="1">
          <mxGeometry x="30" width="200" height="60" as="geometry">
            <mxRectangle width="200" height="60" as="alternateBounds" />
          </mxGeometry>
        </mxCell>
        <mxCell id="nD4syaO1w29k3vmpNwM7-158" value="" style="shape=tableRow;horizontal=0;startSize=0;swimlaneHead=0;swimlaneBody=0;fillColor=none;collapsible=0;dropTarget=0;points=[[0,0.5],[1,0.5]];portConstraint=eastwest;top=0;left=0;right=0;bottom=1;movable=1;resizable=1;rotatable=1;deletable=1;editable=1;connectable=1;" parent="nD4syaO1w29k3vmpNwM7-14" vertex="1">
          <mxGeometry y="310" width="230" height="20" as="geometry" />
        </mxCell>
        <mxCell id="nD4syaO1w29k3vmpNwM7-159" value="" style="shape=partialRectangle;connectable=1;fillColor=none;top=0;left=0;bottom=0;right=0;fontStyle=1;overflow=hidden;movable=1;resizable=1;rotatable=1;deletable=1;editable=1;" parent="nD4syaO1w29k3vmpNwM7-158" vertex="1">
          <mxGeometry width="30" height="20" as="geometry">
            <mxRectangle width="30" height="20" as="alternateBounds" />
          </mxGeometry>
        </mxCell>
        <mxCell id="nD4syaO1w29k3vmpNwM7-160" value="" style="shape=partialRectangle;connectable=1;fillColor=none;top=0;left=0;bottom=0;right=0;align=left;spacingLeft=6;fontStyle=5;overflow=hidden;movable=1;resizable=1;rotatable=1;deletable=1;editable=1;" parent="nD4syaO1w29k3vmpNwM7-158" vertex="1">
          <mxGeometry x="30" width="200" height="20" as="geometry">
            <mxRectangle width="200" height="20" as="alternateBounds" />
          </mxGeometry>
        </mxCell>
        <mxCell id="nD4syaO1w29k3vmpNwM7-167" value="" style="shape=tableRow;horizontal=0;startSize=0;swimlaneHead=0;swimlaneBody=0;fillColor=none;collapsible=0;dropTarget=0;points=[[0,0.5],[1,0.5]];portConstraint=eastwest;top=0;left=0;right=0;bottom=0;movable=1;resizable=1;rotatable=1;deletable=1;editable=1;connectable=1;" parent="nD4syaO1w29k3vmpNwM7-14" vertex="1">
          <mxGeometry y="330" width="230" height="30" as="geometry" />
        </mxCell>
        <mxCell id="nD4syaO1w29k3vmpNwM7-168" value="" style="shape=partialRectangle;connectable=1;fillColor=none;top=0;left=0;bottom=0;right=0;editable=1;overflow=hidden;movable=1;resizable=1;rotatable=1;deletable=1;" parent="nD4syaO1w29k3vmpNwM7-167" vertex="1">
          <mxGeometry width="30" height="30" as="geometry">
            <mxRectangle width="30" height="30" as="alternateBounds" />
          </mxGeometry>
        </mxCell>
        <mxCell id="nD4syaO1w29k3vmpNwM7-169" value="" style="shape=partialRectangle;connectable=1;fillColor=none;top=0;left=0;bottom=0;right=0;align=left;spacingLeft=6;overflow=hidden;movable=1;resizable=1;rotatable=1;deletable=1;editable=1;" parent="nD4syaO1w29k3vmpNwM7-167" vertex="1">
          <mxGeometry x="30" width="200" height="30" as="geometry">
            <mxRectangle width="200" height="30" as="alternateBounds" />
          </mxGeometry>
        </mxCell>
        <mxCell id="UjYUpt8ojRkEc1T_COAz-3" style="edgeStyle=orthogonalEdgeStyle;rounded=0;orthogonalLoop=1;jettySize=auto;html=1;exitX=0.5;exitY=0;exitDx=0;exitDy=0;entryX=0.5;entryY=1;entryDx=0;entryDy=0;" parent="1" source="nD4syaO1w29k3vmpNwM7-27" target="dIEBpJOMzmCvZlWTN5sd-10" edge="1">
          <mxGeometry relative="1" as="geometry" />
        </mxCell>
        <mxCell id="nD4syaO1w29k3vmpNwM7-27" value="OPERATORE" style="shape=table;startSize=30;container=1;collapsible=1;childLayout=tableLayout;fixedRows=1;rowLines=0;fontStyle=1;align=center;resizeLast=1;" parent="1" vertex="1">
          <mxGeometry x="1490" y="110" width="180" height="150" as="geometry">
            <mxRectangle x="1500" y="60" width="110" height="30" as="alternateBounds" />
          </mxGeometry>
        </mxCell>
        <mxCell id="nD4syaO1w29k3vmpNwM7-28" value="" style="shape=tableRow;horizontal=0;startSize=0;swimlaneHead=0;swimlaneBody=0;fillColor=none;collapsible=0;dropTarget=0;points=[[0,0.5],[1,0.5]];portConstraint=eastwest;top=0;left=0;right=0;bottom=1;" parent="nD4syaO1w29k3vmpNwM7-27" vertex="1">
          <mxGeometry y="30" width="180" height="30" as="geometry" />
        </mxCell>
        <mxCell id="nD4syaO1w29k3vmpNwM7-29" value="PK" style="shape=partialRectangle;connectable=0;fillColor=none;top=0;left=0;bottom=0;right=0;fontStyle=1;overflow=hidden;" parent="nD4syaO1w29k3vmpNwM7-28" vertex="1">
          <mxGeometry width="30" height="30" as="geometry">
            <mxRectangle width="30" height="30" as="alternateBounds" />
          </mxGeometry>
        </mxCell>
        <mxCell id="nD4syaO1w29k3vmpNwM7-30" value="MATRICOLA" style="shape=partialRectangle;connectable=0;fillColor=none;top=0;left=0;bottom=0;right=0;align=left;spacingLeft=6;fontStyle=5;overflow=hidden;" parent="nD4syaO1w29k3vmpNwM7-28" vertex="1">
          <mxGeometry x="30" width="150" height="30" as="geometry">
            <mxRectangle width="150" height="30" as="alternateBounds" />
          </mxGeometry>
        </mxCell>
        <mxCell id="nD4syaO1w29k3vmpNwM7-31" value="" style="shape=tableRow;horizontal=0;startSize=0;swimlaneHead=0;swimlaneBody=0;fillColor=none;collapsible=0;dropTarget=0;points=[[0,0.5],[1,0.5]];portConstraint=eastwest;top=0;left=0;right=0;bottom=0;" parent="nD4syaO1w29k3vmpNwM7-27" vertex="1">
          <mxGeometry y="60" width="180" height="30" as="geometry" />
        </mxCell>
        <mxCell id="nD4syaO1w29k3vmpNwM7-32" value="" style="shape=partialRectangle;connectable=0;fillColor=none;top=0;left=0;bottom=0;right=0;editable=1;overflow=hidden;" parent="nD4syaO1w29k3vmpNwM7-31" vertex="1">
          <mxGeometry width="30" height="30" as="geometry">
            <mxRectangle width="30" height="30" as="alternateBounds" />
          </mxGeometry>
        </mxCell>
        <mxCell id="nD4syaO1w29k3vmpNwM7-33" value="NOME" style="shape=partialRectangle;connectable=0;fillColor=none;top=0;left=0;bottom=0;right=0;align=left;spacingLeft=6;overflow=hidden;" parent="nD4syaO1w29k3vmpNwM7-31" vertex="1">
          <mxGeometry x="30" width="150" height="30" as="geometry">
            <mxRectangle width="150" height="30" as="alternateBounds" />
          </mxGeometry>
        </mxCell>
        <mxCell id="nD4syaO1w29k3vmpNwM7-34" value="" style="shape=tableRow;horizontal=0;startSize=0;swimlaneHead=0;swimlaneBody=0;fillColor=none;collapsible=0;dropTarget=0;points=[[0,0.5],[1,0.5]];portConstraint=eastwest;top=0;left=0;right=0;bottom=0;" parent="nD4syaO1w29k3vmpNwM7-27" vertex="1">
          <mxGeometry y="90" width="180" height="30" as="geometry" />
        </mxCell>
        <mxCell id="nD4syaO1w29k3vmpNwM7-35" value="" style="shape=partialRectangle;connectable=0;fillColor=none;top=0;left=0;bottom=0;right=0;editable=1;overflow=hidden;" parent="nD4syaO1w29k3vmpNwM7-34" vertex="1">
          <mxGeometry width="30" height="30" as="geometry">
            <mxRectangle width="30" height="30" as="alternateBounds" />
          </mxGeometry>
        </mxCell>
        <mxCell id="nD4syaO1w29k3vmpNwM7-36" value="COGNOME" style="shape=partialRectangle;connectable=0;fillColor=none;top=0;left=0;bottom=0;right=0;align=left;spacingLeft=6;overflow=hidden;" parent="nD4syaO1w29k3vmpNwM7-34" vertex="1">
          <mxGeometry x="30" width="150" height="30" as="geometry">
            <mxRectangle width="150" height="30" as="alternateBounds" />
          </mxGeometry>
        </mxCell>
        <mxCell id="nD4syaO1w29k3vmpNwM7-37" value="" style="shape=tableRow;horizontal=0;startSize=0;swimlaneHead=0;swimlaneBody=0;fillColor=none;collapsible=0;dropTarget=0;points=[[0,0.5],[1,0.5]];portConstraint=eastwest;top=0;left=0;right=0;bottom=0;" parent="nD4syaO1w29k3vmpNwM7-27" vertex="1">
          <mxGeometry y="120" width="180" height="30" as="geometry" />
        </mxCell>
        <mxCell id="nD4syaO1w29k3vmpNwM7-38" value="" style="shape=partialRectangle;connectable=0;fillColor=none;top=0;left=0;bottom=0;right=0;editable=1;overflow=hidden;" parent="nD4syaO1w29k3vmpNwM7-37" vertex="1">
          <mxGeometry width="30" height="30" as="geometry">
            <mxRectangle width="30" height="30" as="alternateBounds" />
          </mxGeometry>
        </mxCell>
        <mxCell id="nD4syaO1w29k3vmpNwM7-39" value="NUMERO CELLULARE" style="shape=partialRectangle;connectable=0;fillColor=none;top=0;left=0;bottom=0;right=0;align=left;spacingLeft=6;overflow=hidden;" parent="nD4syaO1w29k3vmpNwM7-37" vertex="1">
          <mxGeometry x="30" width="150" height="30" as="geometry">
            <mxRectangle width="150" height="30" as="alternateBounds" />
          </mxGeometry>
        </mxCell>
        <mxCell id="nD4syaO1w29k3vmpNwM7-40" value="CONTATORE" style="shape=table;startSize=20;container=1;collapsible=1;childLayout=tableLayout;fixedRows=1;rowLines=0;fontStyle=1;align=center;resizeLast=1;" parent="1" vertex="1">
          <mxGeometry x="1070" y="-230" width="195" height="180" as="geometry">
            <mxRectangle x="1070" y="-230" width="110" height="30" as="alternateBounds" />
          </mxGeometry>
        </mxCell>
        <mxCell id="nD4syaO1w29k3vmpNwM7-41" value="" style="shape=tableRow;horizontal=0;startSize=0;swimlaneHead=0;swimlaneBody=0;fillColor=none;collapsible=0;dropTarget=0;points=[[0,0.5],[1,0.5]];portConstraint=eastwest;top=0;left=0;right=0;bottom=1;" parent="nD4syaO1w29k3vmpNwM7-40" vertex="1">
          <mxGeometry y="20" width="195" height="30" as="geometry" />
        </mxCell>
        <mxCell id="nD4syaO1w29k3vmpNwM7-42" value="PK" style="shape=partialRectangle;connectable=0;fillColor=none;top=0;left=0;bottom=0;right=0;fontStyle=1;overflow=hidden;" parent="nD4syaO1w29k3vmpNwM7-41" vertex="1">
          <mxGeometry width="30" height="30" as="geometry">
            <mxRectangle width="30" height="30" as="alternateBounds" />
          </mxGeometry>
        </mxCell>
        <mxCell id="nD4syaO1w29k3vmpNwM7-43" value="CODICE ALFANUMERICO" style="shape=partialRectangle;connectable=0;fillColor=none;top=0;left=0;bottom=0;right=0;align=left;spacingLeft=6;fontStyle=5;overflow=hidden;" parent="nD4syaO1w29k3vmpNwM7-41" vertex="1">
          <mxGeometry x="30" width="165" height="30" as="geometry">
            <mxRectangle width="165" height="30" as="alternateBounds" />
          </mxGeometry>
        </mxCell>
        <mxCell id="nD4syaO1w29k3vmpNwM7-44" value="" style="shape=tableRow;horizontal=0;startSize=0;swimlaneHead=0;swimlaneBody=0;fillColor=none;collapsible=0;dropTarget=0;points=[[0,0.5],[1,0.5]];portConstraint=eastwest;top=0;left=0;right=0;bottom=0;" parent="nD4syaO1w29k3vmpNwM7-40" vertex="1">
          <mxGeometry y="50" width="195" height="30" as="geometry" />
        </mxCell>
        <mxCell id="nD4syaO1w29k3vmpNwM7-45" value="" style="shape=partialRectangle;connectable=0;fillColor=none;top=0;left=0;bottom=0;right=0;editable=1;overflow=hidden;" parent="nD4syaO1w29k3vmpNwM7-44" vertex="1">
          <mxGeometry width="30" height="30" as="geometry">
            <mxRectangle width="30" height="30" as="alternateBounds" />
          </mxGeometry>
        </mxCell>
        <mxCell id="nD4syaO1w29k3vmpNwM7-46" value="MODELLO" style="shape=partialRectangle;connectable=0;fillColor=none;top=0;left=0;bottom=0;right=0;align=left;spacingLeft=6;overflow=hidden;" parent="nD4syaO1w29k3vmpNwM7-44" vertex="1">
          <mxGeometry x="30" width="165" height="30" as="geometry">
            <mxRectangle width="165" height="30" as="alternateBounds" />
          </mxGeometry>
        </mxCell>
        <mxCell id="nD4syaO1w29k3vmpNwM7-47" value="" style="shape=tableRow;horizontal=0;startSize=0;swimlaneHead=0;swimlaneBody=0;fillColor=none;collapsible=0;dropTarget=0;points=[[0,0.5],[1,0.5]];portConstraint=eastwest;top=0;left=0;right=0;bottom=0;" parent="nD4syaO1w29k3vmpNwM7-40" vertex="1">
          <mxGeometry y="80" width="195" height="30" as="geometry" />
        </mxCell>
        <mxCell id="nD4syaO1w29k3vmpNwM7-48" value="" style="shape=partialRectangle;connectable=0;fillColor=none;top=0;left=0;bottom=0;right=0;editable=1;overflow=hidden;" parent="nD4syaO1w29k3vmpNwM7-47" vertex="1">
          <mxGeometry width="30" height="30" as="geometry">
            <mxRectangle width="30" height="30" as="alternateBounds" />
          </mxGeometry>
        </mxCell>
        <mxCell id="nD4syaO1w29k3vmpNwM7-49" value="KW MASSIMI EROGABILI" style="shape=partialRectangle;connectable=0;fillColor=none;top=0;left=0;bottom=0;right=0;align=left;spacingLeft=6;overflow=hidden;" parent="nD4syaO1w29k3vmpNwM7-47" vertex="1">
          <mxGeometry x="30" width="165" height="30" as="geometry">
            <mxRectangle width="165" height="30" as="alternateBounds" />
          </mxGeometry>
        </mxCell>
        <mxCell id="nD4syaO1w29k3vmpNwM7-50" value="" style="shape=tableRow;horizontal=0;startSize=0;swimlaneHead=0;swimlaneBody=0;fillColor=none;collapsible=0;dropTarget=0;points=[[0,0.5],[1,0.5]];portConstraint=eastwest;top=0;left=0;right=0;bottom=0;" parent="nD4syaO1w29k3vmpNwM7-40" vertex="1">
          <mxGeometry y="110" width="195" height="30" as="geometry" />
        </mxCell>
        <mxCell id="nD4syaO1w29k3vmpNwM7-51" value="FK" style="shape=partialRectangle;connectable=0;fillColor=none;top=0;left=0;bottom=0;right=0;editable=1;overflow=hidden;" parent="nD4syaO1w29k3vmpNwM7-50" vertex="1">
          <mxGeometry width="30" height="30" as="geometry">
            <mxRectangle width="30" height="30" as="alternateBounds" />
          </mxGeometry>
        </mxCell>
        <mxCell id="nD4syaO1w29k3vmpNwM7-52" value="CODICE CONTRATTO" style="shape=partialRectangle;connectable=0;fillColor=none;top=0;left=0;bottom=0;right=0;align=left;spacingLeft=6;overflow=hidden;" parent="nD4syaO1w29k3vmpNwM7-50" vertex="1">
          <mxGeometry x="30" width="165" height="30" as="geometry">
            <mxRectangle width="165" height="30" as="alternateBounds" />
          </mxGeometry>
        </mxCell>
        <mxCell id="dIEBpJOMzmCvZlWTN5sd-39" value="" style="shape=tableRow;horizontal=0;startSize=0;swimlaneHead=0;swimlaneBody=0;fillColor=none;collapsible=0;dropTarget=0;points=[[0,0.5],[1,0.5]];portConstraint=eastwest;top=0;left=0;right=0;bottom=0;" parent="nD4syaO1w29k3vmpNwM7-40" vertex="1">
          <mxGeometry y="140" width="195" height="30" as="geometry" />
        </mxCell>
        <mxCell id="dIEBpJOMzmCvZlWTN5sd-40" value="" style="shape=partialRectangle;connectable=0;fillColor=none;top=0;left=0;bottom=0;right=0;editable=1;overflow=hidden;" parent="dIEBpJOMzmCvZlWTN5sd-39" vertex="1">
          <mxGeometry width="30" height="30" as="geometry">
            <mxRectangle width="30" height="30" as="alternateBounds" />
          </mxGeometry>
        </mxCell>
        <mxCell id="dIEBpJOMzmCvZlWTN5sd-41" value="DATA INSTALLAZIONE" style="shape=partialRectangle;connectable=0;fillColor=none;top=0;left=0;bottom=0;right=0;align=left;spacingLeft=6;overflow=hidden;" parent="dIEBpJOMzmCvZlWTN5sd-39" vertex="1">
          <mxGeometry x="30" width="165" height="30" as="geometry">
            <mxRectangle width="165" height="30" as="alternateBounds" />
          </mxGeometry>
        </mxCell>
        <mxCell id="UjYUpt8ojRkEc1T_COAz-7" style="edgeStyle=orthogonalEdgeStyle;rounded=0;orthogonalLoop=1;jettySize=auto;html=1;exitX=0.498;exitY=1.004;exitDx=0;exitDy=0;exitPerimeter=0;" parent="1" source="nD4syaO1w29k3vmpNwM7-222" target="7G08isXgEMkV2wekbxgx-7" edge="1">
          <mxGeometry relative="1" as="geometry" />
        </mxCell>
        <mxCell id="nD4syaO1w29k3vmpNwM7-53" value="BOLLETTA" style="shape=table;startSize=30;container=1;collapsible=1;childLayout=tableLayout;fixedRows=1;rowLines=0;fontStyle=1;align=center;resizeLast=1;" parent="1" vertex="1">
          <mxGeometry x="1166.5" y="5" width="230" height="290" as="geometry">
            <mxRectangle x="1162.5" y="20" width="100" height="30" as="alternateBounds" />
          </mxGeometry>
        </mxCell>
        <mxCell id="nD4syaO1w29k3vmpNwM7-54" value="" style="shape=tableRow;horizontal=0;startSize=0;swimlaneHead=0;swimlaneBody=0;fillColor=none;collapsible=0;dropTarget=0;points=[[0,0.5],[1,0.5]];portConstraint=eastwest;top=0;left=0;right=0;bottom=1;" parent="nD4syaO1w29k3vmpNwM7-53" vertex="1">
          <mxGeometry y="30" width="230" height="30" as="geometry" />
        </mxCell>
        <mxCell id="nD4syaO1w29k3vmpNwM7-55" value="PK" style="shape=partialRectangle;connectable=0;fillColor=none;top=0;left=0;bottom=0;right=0;fontStyle=1;overflow=hidden;" parent="nD4syaO1w29k3vmpNwM7-54" vertex="1">
          <mxGeometry width="30" height="30" as="geometry">
            <mxRectangle width="30" height="30" as="alternateBounds" />
          </mxGeometry>
        </mxCell>
        <mxCell id="nD4syaO1w29k3vmpNwM7-56" value="N. PROGRESSIVO" style="shape=partialRectangle;connectable=0;fillColor=none;top=0;left=0;bottom=0;right=0;align=left;spacingLeft=6;fontStyle=5;overflow=hidden;" parent="nD4syaO1w29k3vmpNwM7-54" vertex="1">
          <mxGeometry x="30" width="200" height="30" as="geometry">
            <mxRectangle width="200" height="30" as="alternateBounds" />
          </mxGeometry>
        </mxCell>
        <mxCell id="nD4syaO1w29k3vmpNwM7-57" value="" style="shape=tableRow;horizontal=0;startSize=0;swimlaneHead=0;swimlaneBody=0;fillColor=none;collapsible=0;dropTarget=0;points=[[0,0.5],[1,0.5]];portConstraint=eastwest;top=0;left=0;right=0;bottom=0;" parent="nD4syaO1w29k3vmpNwM7-53" vertex="1">
          <mxGeometry y="60" width="230" height="30" as="geometry" />
        </mxCell>
        <mxCell id="nD4syaO1w29k3vmpNwM7-58" value="FK" style="shape=partialRectangle;connectable=0;fillColor=none;top=0;left=0;bottom=0;right=0;editable=1;overflow=hidden;" parent="nD4syaO1w29k3vmpNwM7-57" vertex="1">
          <mxGeometry width="30" height="30" as="geometry">
            <mxRectangle width="30" height="30" as="alternateBounds" />
          </mxGeometry>
        </mxCell>
        <mxCell id="nD4syaO1w29k3vmpNwM7-59" value="CODICE CONTRATTO" style="shape=partialRectangle;connectable=0;fillColor=none;top=0;left=0;bottom=0;right=0;align=left;spacingLeft=6;overflow=hidden;" parent="nD4syaO1w29k3vmpNwM7-57" vertex="1">
          <mxGeometry x="30" width="200" height="30" as="geometry">
            <mxRectangle width="200" height="30" as="alternateBounds" />
          </mxGeometry>
        </mxCell>
        <mxCell id="nD4syaO1w29k3vmpNwM7-60" value="" style="shape=tableRow;horizontal=0;startSize=0;swimlaneHead=0;swimlaneBody=0;fillColor=none;collapsible=0;dropTarget=0;points=[[0,0.5],[1,0.5]];portConstraint=eastwest;top=0;left=0;right=0;bottom=0;" parent="nD4syaO1w29k3vmpNwM7-53" vertex="1">
          <mxGeometry y="90" width="230" height="30" as="geometry" />
        </mxCell>
        <mxCell id="nD4syaO1w29k3vmpNwM7-61" value="" style="shape=partialRectangle;connectable=0;fillColor=none;top=0;left=0;bottom=0;right=0;editable=1;overflow=hidden;" parent="nD4syaO1w29k3vmpNwM7-60" vertex="1">
          <mxGeometry width="30" height="30" as="geometry">
            <mxRectangle width="30" height="30" as="alternateBounds" />
          </mxGeometry>
        </mxCell>
        <mxCell id="nD4syaO1w29k3vmpNwM7-62" value="DATA DI EMISSIONE" style="shape=partialRectangle;connectable=0;fillColor=none;top=0;left=0;bottom=0;right=0;align=left;spacingLeft=6;overflow=hidden;" parent="nD4syaO1w29k3vmpNwM7-60" vertex="1">
          <mxGeometry x="30" width="200" height="30" as="geometry">
            <mxRectangle width="200" height="30" as="alternateBounds" />
          </mxGeometry>
        </mxCell>
        <mxCell id="nD4syaO1w29k3vmpNwM7-63" value="" style="shape=tableRow;horizontal=0;startSize=0;swimlaneHead=0;swimlaneBody=0;fillColor=none;collapsible=0;dropTarget=0;points=[[0,0.5],[1,0.5]];portConstraint=eastwest;top=0;left=0;right=0;bottom=0;" parent="nD4syaO1w29k3vmpNwM7-53" vertex="1">
          <mxGeometry y="120" width="230" height="20" as="geometry" />
        </mxCell>
        <mxCell id="nD4syaO1w29k3vmpNwM7-64" value="" style="shape=partialRectangle;connectable=0;fillColor=none;top=0;left=0;bottom=0;right=0;editable=1;overflow=hidden;" parent="nD4syaO1w29k3vmpNwM7-63" vertex="1">
          <mxGeometry width="30" height="20" as="geometry">
            <mxRectangle width="30" height="20" as="alternateBounds" />
          </mxGeometry>
        </mxCell>
        <mxCell id="nD4syaO1w29k3vmpNwM7-65" value="PERIODO DI RIFERIMENTO" style="shape=partialRectangle;connectable=0;fillColor=none;top=0;left=0;bottom=0;right=0;align=left;spacingLeft=6;overflow=hidden;" parent="nD4syaO1w29k3vmpNwM7-63" vertex="1">
          <mxGeometry x="30" width="200" height="20" as="geometry">
            <mxRectangle width="200" height="20" as="alternateBounds" />
          </mxGeometry>
        </mxCell>
        <mxCell id="nD4syaO1w29k3vmpNwM7-216" value="" style="shape=tableRow;horizontal=0;startSize=0;swimlaneHead=0;swimlaneBody=0;fillColor=none;collapsible=0;dropTarget=0;points=[[0,0.5],[1,0.5]];portConstraint=eastwest;top=0;left=0;right=0;bottom=0;" parent="nD4syaO1w29k3vmpNwM7-53" vertex="1">
          <mxGeometry y="140" width="230" height="30" as="geometry" />
        </mxCell>
        <mxCell id="nD4syaO1w29k3vmpNwM7-217" value="" style="shape=partialRectangle;connectable=0;fillColor=none;top=0;left=0;bottom=0;right=0;editable=1;overflow=hidden;" parent="nD4syaO1w29k3vmpNwM7-216" vertex="1">
          <mxGeometry width="30" height="30" as="geometry">
            <mxRectangle width="30" height="30" as="alternateBounds" />
          </mxGeometry>
        </mxCell>
        <mxCell id="nD4syaO1w29k3vmpNwM7-218" value="**QTA CORRENTE EROGATA" style="shape=partialRectangle;connectable=0;fillColor=none;top=0;left=0;bottom=0;right=0;align=left;spacingLeft=6;overflow=hidden;" parent="nD4syaO1w29k3vmpNwM7-216" vertex="1">
          <mxGeometry x="30" width="200" height="30" as="geometry">
            <mxRectangle width="200" height="30" as="alternateBounds" />
          </mxGeometry>
        </mxCell>
        <mxCell id="nD4syaO1w29k3vmpNwM7-185" value="" style="shape=tableRow;horizontal=0;startSize=0;swimlaneHead=0;swimlaneBody=0;fillColor=none;collapsible=0;dropTarget=0;points=[[0,0.5],[1,0.5]];portConstraint=eastwest;top=0;left=0;right=0;bottom=0;" parent="nD4syaO1w29k3vmpNwM7-53" vertex="1">
          <mxGeometry y="170" width="230" height="30" as="geometry" />
        </mxCell>
        <mxCell id="nD4syaO1w29k3vmpNwM7-186" value="" style="shape=partialRectangle;connectable=0;fillColor=none;top=0;left=0;bottom=0;right=0;editable=1;overflow=hidden;" parent="nD4syaO1w29k3vmpNwM7-185" vertex="1">
          <mxGeometry width="30" height="30" as="geometry">
            <mxRectangle width="30" height="30" as="alternateBounds" />
          </mxGeometry>
        </mxCell>
        <mxCell id="nD4syaO1w29k3vmpNwM7-187" value="DATA SCAD. PAGAMENTO" style="shape=partialRectangle;connectable=0;fillColor=none;top=0;left=0;bottom=0;right=0;align=left;spacingLeft=6;overflow=hidden;" parent="nD4syaO1w29k3vmpNwM7-185" vertex="1">
          <mxGeometry x="30" width="200" height="30" as="geometry">
            <mxRectangle width="200" height="30" as="alternateBounds" />
          </mxGeometry>
        </mxCell>
        <mxCell id="nD4syaO1w29k3vmpNwM7-188" value="" style="shape=tableRow;horizontal=0;startSize=0;swimlaneHead=0;swimlaneBody=0;fillColor=none;collapsible=0;dropTarget=0;points=[[0,0.5],[1,0.5]];portConstraint=eastwest;top=0;left=0;right=0;bottom=0;" parent="nD4syaO1w29k3vmpNwM7-53" vertex="1">
          <mxGeometry y="200" width="230" height="30" as="geometry" />
        </mxCell>
        <mxCell id="nD4syaO1w29k3vmpNwM7-189" value="" style="shape=partialRectangle;connectable=0;fillColor=none;top=0;left=0;bottom=0;right=0;editable=1;overflow=hidden;" parent="nD4syaO1w29k3vmpNwM7-188" vertex="1">
          <mxGeometry width="30" height="30" as="geometry">
            <mxRectangle width="30" height="30" as="alternateBounds" />
          </mxGeometry>
        </mxCell>
        <mxCell id="nD4syaO1w29k3vmpNwM7-190" value="SOMMA DA PAGARE (rimossa)" style="shape=partialRectangle;connectable=0;fillColor=none;top=0;left=0;bottom=0;right=0;align=left;spacingLeft=6;overflow=hidden;" parent="nD4syaO1w29k3vmpNwM7-188" vertex="1">
          <mxGeometry x="30" width="200" height="30" as="geometry">
            <mxRectangle width="200" height="30" as="alternateBounds" />
          </mxGeometry>
        </mxCell>
        <mxCell id="nD4syaO1w29k3vmpNwM7-191" value="" style="shape=tableRow;horizontal=0;startSize=0;swimlaneHead=0;swimlaneBody=0;fillColor=none;collapsible=0;dropTarget=0;points=[[0,0.5],[1,0.5]];portConstraint=eastwest;top=0;left=0;right=0;bottom=0;" parent="nD4syaO1w29k3vmpNwM7-53" vertex="1">
          <mxGeometry y="230" width="230" height="30" as="geometry" />
        </mxCell>
        <mxCell id="nD4syaO1w29k3vmpNwM7-192" value="" style="shape=partialRectangle;connectable=0;fillColor=none;top=0;left=0;bottom=0;right=0;editable=1;overflow=hidden;" parent="nD4syaO1w29k3vmpNwM7-191" vertex="1">
          <mxGeometry width="30" height="30" as="geometry">
            <mxRectangle width="30" height="30" as="alternateBounds" />
          </mxGeometry>
        </mxCell>
        <mxCell id="nD4syaO1w29k3vmpNwM7-193" value="** CORRENTE CONSUMATA" style="shape=partialRectangle;connectable=0;fillColor=none;top=0;left=0;bottom=0;right=0;align=left;spacingLeft=6;overflow=hidden;" parent="nD4syaO1w29k3vmpNwM7-191" vertex="1">
          <mxGeometry x="30" width="200" height="30" as="geometry">
            <mxRectangle width="200" height="30" as="alternateBounds" />
          </mxGeometry>
        </mxCell>
        <mxCell id="nD4syaO1w29k3vmpNwM7-222" value="" style="shape=tableRow;horizontal=0;startSize=0;swimlaneHead=0;swimlaneBody=0;fillColor=none;collapsible=0;dropTarget=0;points=[[0,0.5],[1,0.5]];portConstraint=eastwest;top=0;left=0;right=0;bottom=0;" parent="nD4syaO1w29k3vmpNwM7-53" vertex="1">
          <mxGeometry y="260" width="230" height="30" as="geometry" />
        </mxCell>
        <mxCell id="nD4syaO1w29k3vmpNwM7-223" value="" style="shape=partialRectangle;connectable=0;fillColor=none;top=0;left=0;bottom=0;right=0;editable=1;overflow=hidden;" parent="nD4syaO1w29k3vmpNwM7-222" vertex="1">
          <mxGeometry width="30" height="30" as="geometry">
            <mxRectangle width="30" height="30" as="alternateBounds" />
          </mxGeometry>
        </mxCell>
        <mxCell id="nD4syaO1w29k3vmpNwM7-224" value="COD. FASCIA ORARIA" style="shape=partialRectangle;connectable=0;fillColor=none;top=0;left=0;bottom=0;right=0;align=left;spacingLeft=6;overflow=hidden;" parent="nD4syaO1w29k3vmpNwM7-222" vertex="1">
          <mxGeometry x="30" width="200" height="30" as="geometry">
            <mxRectangle width="200" height="30" as="alternateBounds" />
          </mxGeometry>
        </mxCell>
        <mxCell id="nD4syaO1w29k3vmpNwM7-66" value="FASCIA ORARIA" style="shape=table;startSize=30;container=1;collapsible=1;childLayout=tableLayout;fixedRows=1;rowLines=0;fontStyle=1;align=center;resizeLast=1;" parent="1" vertex="1">
          <mxGeometry x="1187.5" y="425" width="180" height="140" as="geometry">
            <mxRectangle x="1187.5" y="470" width="130" height="30" as="alternateBounds" />
          </mxGeometry>
        </mxCell>
        <mxCell id="nD4syaO1w29k3vmpNwM7-67" value="" style="shape=tableRow;horizontal=0;startSize=0;swimlaneHead=0;swimlaneBody=0;fillColor=none;collapsible=0;dropTarget=0;points=[[0,0.5],[1,0.5]];portConstraint=eastwest;top=0;left=0;right=0;bottom=1;" parent="nD4syaO1w29k3vmpNwM7-66" vertex="1">
          <mxGeometry y="30" width="180" height="30" as="geometry" />
        </mxCell>
        <mxCell id="nD4syaO1w29k3vmpNwM7-68" value="PK" style="shape=partialRectangle;connectable=0;fillColor=none;top=0;left=0;bottom=0;right=0;fontStyle=1;overflow=hidden;" parent="nD4syaO1w29k3vmpNwM7-67" vertex="1">
          <mxGeometry width="30" height="30" as="geometry">
            <mxRectangle width="30" height="30" as="alternateBounds" />
          </mxGeometry>
        </mxCell>
        <mxCell id="nD4syaO1w29k3vmpNwM7-69" value="COD. ALFANUMERICO" style="shape=partialRectangle;connectable=0;fillColor=none;top=0;left=0;bottom=0;right=0;align=left;spacingLeft=6;fontStyle=5;overflow=hidden;" parent="nD4syaO1w29k3vmpNwM7-67" vertex="1">
          <mxGeometry x="30" width="150" height="30" as="geometry">
            <mxRectangle width="150" height="30" as="alternateBounds" />
          </mxGeometry>
        </mxCell>
        <mxCell id="nD4syaO1w29k3vmpNwM7-70" value="" style="shape=tableRow;horizontal=0;startSize=0;swimlaneHead=0;swimlaneBody=0;fillColor=none;collapsible=0;dropTarget=0;points=[[0,0.5],[1,0.5]];portConstraint=eastwest;top=0;left=0;right=0;bottom=0;" parent="nD4syaO1w29k3vmpNwM7-66" vertex="1">
          <mxGeometry y="60" width="180" height="30" as="geometry" />
        </mxCell>
        <mxCell id="nD4syaO1w29k3vmpNwM7-71" value="" style="shape=partialRectangle;connectable=0;fillColor=none;top=0;left=0;bottom=0;right=0;editable=1;overflow=hidden;" parent="nD4syaO1w29k3vmpNwM7-70" vertex="1">
          <mxGeometry width="30" height="30" as="geometry">
            <mxRectangle width="30" height="30" as="alternateBounds" />
          </mxGeometry>
        </mxCell>
        <mxCell id="nD4syaO1w29k3vmpNwM7-72" value="ORA INIZIO VALIDITA&#39;" style="shape=partialRectangle;connectable=0;fillColor=none;top=0;left=0;bottom=0;right=0;align=left;spacingLeft=6;overflow=hidden;" parent="nD4syaO1w29k3vmpNwM7-70" vertex="1">
          <mxGeometry x="30" width="150" height="30" as="geometry">
            <mxRectangle width="150" height="30" as="alternateBounds" />
          </mxGeometry>
        </mxCell>
        <mxCell id="nD4syaO1w29k3vmpNwM7-73" value="" style="shape=tableRow;horizontal=0;startSize=0;swimlaneHead=0;swimlaneBody=0;fillColor=none;collapsible=0;dropTarget=0;points=[[0,0.5],[1,0.5]];portConstraint=eastwest;top=0;left=0;right=0;bottom=0;" parent="nD4syaO1w29k3vmpNwM7-66" vertex="1">
          <mxGeometry y="90" width="180" height="30" as="geometry" />
        </mxCell>
        <mxCell id="nD4syaO1w29k3vmpNwM7-74" value="" style="shape=partialRectangle;connectable=0;fillColor=none;top=0;left=0;bottom=0;right=0;editable=1;overflow=hidden;" parent="nD4syaO1w29k3vmpNwM7-73" vertex="1">
          <mxGeometry width="30" height="30" as="geometry">
            <mxRectangle width="30" height="30" as="alternateBounds" />
          </mxGeometry>
        </mxCell>
        <mxCell id="nD4syaO1w29k3vmpNwM7-75" value="ORA FINE VALIDITA&#39;" style="shape=partialRectangle;connectable=0;fillColor=none;top=0;left=0;bottom=0;right=0;align=left;spacingLeft=6;overflow=hidden;" parent="nD4syaO1w29k3vmpNwM7-73" vertex="1">
          <mxGeometry x="30" width="150" height="30" as="geometry">
            <mxRectangle width="150" height="30" as="alternateBounds" />
          </mxGeometry>
        </mxCell>
        <mxCell id="nD4syaO1w29k3vmpNwM7-76" value="" style="shape=tableRow;horizontal=0;startSize=0;swimlaneHead=0;swimlaneBody=0;fillColor=none;collapsible=0;dropTarget=0;points=[[0,0.5],[1,0.5]];portConstraint=eastwest;top=0;left=0;right=0;bottom=0;" parent="nD4syaO1w29k3vmpNwM7-66" vertex="1">
          <mxGeometry y="120" width="180" height="20" as="geometry" />
        </mxCell>
        <mxCell id="nD4syaO1w29k3vmpNwM7-77" value="" style="shape=partialRectangle;connectable=0;fillColor=none;top=0;left=0;bottom=0;right=0;editable=1;overflow=hidden;" parent="nD4syaO1w29k3vmpNwM7-76" vertex="1">
          <mxGeometry width="30" height="20" as="geometry">
            <mxRectangle width="30" height="20" as="alternateBounds" />
          </mxGeometry>
        </mxCell>
        <mxCell id="nD4syaO1w29k3vmpNwM7-78" value="PREZZO KWH" style="shape=partialRectangle;connectable=0;fillColor=none;top=0;left=0;bottom=0;right=0;align=left;spacingLeft=6;overflow=hidden;" parent="nD4syaO1w29k3vmpNwM7-76" vertex="1">
          <mxGeometry x="30" width="150" height="20" as="geometry">
            <mxRectangle width="150" height="20" as="alternateBounds" />
          </mxGeometry>
        </mxCell>
        <mxCell id="nD4syaO1w29k3vmpNwM7-79" value="LETTURA" style="shape=table;startSize=30;container=1;collapsible=1;childLayout=tableLayout;fixedRows=1;rowLines=0;fontStyle=1;align=center;resizeLast=1;" parent="1" vertex="1">
          <mxGeometry x="1475" y="-238.5" width="310" height="197" as="geometry">
            <mxRectangle x="1510" y="-277" width="90" height="30" as="alternateBounds" />
          </mxGeometry>
        </mxCell>
        <mxCell id="nD4syaO1w29k3vmpNwM7-80" value="" style="shape=tableRow;horizontal=0;startSize=0;swimlaneHead=0;swimlaneBody=0;fillColor=none;collapsible=0;dropTarget=0;points=[[0,0.5],[1,0.5]];portConstraint=eastwest;top=0;left=0;right=0;bottom=1;" parent="nD4syaO1w29k3vmpNwM7-79" vertex="1">
          <mxGeometry y="30" width="310" height="30" as="geometry" />
        </mxCell>
        <mxCell id="nD4syaO1w29k3vmpNwM7-81" value="CK" style="shape=partialRectangle;connectable=0;fillColor=none;top=0;left=0;bottom=0;right=0;fontStyle=1;overflow=hidden;" parent="nD4syaO1w29k3vmpNwM7-80" vertex="1">
          <mxGeometry width="30" height="30" as="geometry">
            <mxRectangle width="30" height="30" as="alternateBounds" />
          </mxGeometry>
        </mxCell>
        <mxCell id="nD4syaO1w29k3vmpNwM7-82" value="(C.A.CONTATORE + MATRICOLA OPERATORE)" style="shape=partialRectangle;connectable=0;fillColor=none;top=0;left=0;bottom=0;right=0;align=left;spacingLeft=6;fontStyle=5;overflow=hidden;" parent="nD4syaO1w29k3vmpNwM7-80" vertex="1">
          <mxGeometry x="30" width="280" height="30" as="geometry">
            <mxRectangle width="280" height="30" as="alternateBounds" />
          </mxGeometry>
        </mxCell>
        <mxCell id="nD4syaO1w29k3vmpNwM7-83" value="" style="shape=tableRow;horizontal=0;startSize=0;swimlaneHead=0;swimlaneBody=0;fillColor=none;collapsible=0;dropTarget=0;points=[[0,0.5],[1,0.5]];portConstraint=eastwest;top=0;left=0;right=0;bottom=0;" parent="nD4syaO1w29k3vmpNwM7-79" vertex="1">
          <mxGeometry y="60" width="310" height="30" as="geometry" />
        </mxCell>
        <mxCell id="nD4syaO1w29k3vmpNwM7-84" value="FK" style="shape=partialRectangle;connectable=0;fillColor=none;top=0;left=0;bottom=0;right=0;editable=1;overflow=hidden;" parent="nD4syaO1w29k3vmpNwM7-83" vertex="1">
          <mxGeometry width="30" height="30" as="geometry">
            <mxRectangle width="30" height="30" as="alternateBounds" />
          </mxGeometry>
        </mxCell>
        <mxCell id="nD4syaO1w29k3vmpNwM7-85" value="CODICE ALFANUMERICO CONTATORE" style="shape=partialRectangle;connectable=0;fillColor=none;top=0;left=0;bottom=0;right=0;align=left;spacingLeft=6;overflow=hidden;" parent="nD4syaO1w29k3vmpNwM7-83" vertex="1">
          <mxGeometry x="30" width="280" height="30" as="geometry">
            <mxRectangle width="280" height="30" as="alternateBounds" />
          </mxGeometry>
        </mxCell>
        <mxCell id="nD4syaO1w29k3vmpNwM7-86" value="" style="shape=tableRow;horizontal=0;startSize=0;swimlaneHead=0;swimlaneBody=0;fillColor=none;collapsible=0;dropTarget=0;points=[[0,0.5],[1,0.5]];portConstraint=eastwest;top=0;left=0;right=0;bottom=0;" parent="nD4syaO1w29k3vmpNwM7-79" vertex="1">
          <mxGeometry y="90" width="310" height="30" as="geometry" />
        </mxCell>
        <mxCell id="nD4syaO1w29k3vmpNwM7-87" value="FK" style="shape=partialRectangle;connectable=0;fillColor=none;top=0;left=0;bottom=0;right=0;editable=1;overflow=hidden;" parent="nD4syaO1w29k3vmpNwM7-86" vertex="1">
          <mxGeometry width="30" height="30" as="geometry">
            <mxRectangle width="30" height="30" as="alternateBounds" />
          </mxGeometry>
        </mxCell>
        <mxCell id="nD4syaO1w29k3vmpNwM7-88" value="MATRICOLA OPERATORE" style="shape=partialRectangle;connectable=0;fillColor=none;top=0;left=0;bottom=0;right=0;align=left;spacingLeft=6;overflow=hidden;" parent="nD4syaO1w29k3vmpNwM7-86" vertex="1">
          <mxGeometry x="30" width="280" height="30" as="geometry">
            <mxRectangle width="280" height="30" as="alternateBounds" />
          </mxGeometry>
        </mxCell>
        <mxCell id="nD4syaO1w29k3vmpNwM7-89" value="" style="shape=tableRow;horizontal=0;startSize=0;swimlaneHead=0;swimlaneBody=0;fillColor=none;collapsible=0;dropTarget=0;points=[[0,0.5],[1,0.5]];portConstraint=eastwest;top=0;left=0;right=0;bottom=0;" parent="nD4syaO1w29k3vmpNwM7-79" vertex="1">
          <mxGeometry y="120" width="310" height="25" as="geometry" />
        </mxCell>
        <mxCell id="nD4syaO1w29k3vmpNwM7-90" value="" style="shape=partialRectangle;connectable=0;fillColor=none;top=0;left=0;bottom=0;right=0;editable=1;overflow=hidden;" parent="nD4syaO1w29k3vmpNwM7-89" vertex="1">
          <mxGeometry width="30" height="25" as="geometry">
            <mxRectangle width="30" height="25" as="alternateBounds" />
          </mxGeometry>
        </mxCell>
        <mxCell id="nD4syaO1w29k3vmpNwM7-91" value="KW LETTA SUL CONTATORE" style="shape=partialRectangle;connectable=0;fillColor=none;top=0;left=0;bottom=0;right=0;align=left;spacingLeft=6;overflow=hidden;" parent="nD4syaO1w29k3vmpNwM7-89" vertex="1">
          <mxGeometry x="30" width="280" height="25" as="geometry">
            <mxRectangle width="280" height="25" as="alternateBounds" />
          </mxGeometry>
        </mxCell>
        <mxCell id="dIEBpJOMzmCvZlWTN5sd-54" value="" style="shape=tableRow;horizontal=0;startSize=0;swimlaneHead=0;swimlaneBody=0;fillColor=none;collapsible=0;dropTarget=0;points=[[0,0.5],[1,0.5]];portConstraint=eastwest;top=0;left=0;right=0;bottom=0;" parent="nD4syaO1w29k3vmpNwM7-79" vertex="1">
          <mxGeometry y="145" width="310" height="38" as="geometry" />
        </mxCell>
        <mxCell id="dIEBpJOMzmCvZlWTN5sd-55" value="" style="shape=partialRectangle;connectable=0;fillColor=none;top=0;left=0;bottom=0;right=0;editable=1;overflow=hidden;" parent="dIEBpJOMzmCvZlWTN5sd-54" vertex="1">
          <mxGeometry width="30" height="38" as="geometry">
            <mxRectangle width="30" height="38" as="alternateBounds" />
          </mxGeometry>
        </mxCell>
        <mxCell id="dIEBpJOMzmCvZlWTN5sd-56" value="**DATA&#xa;**ORA&#xa;" style="shape=partialRectangle;connectable=0;fillColor=none;top=0;left=0;bottom=0;right=0;align=left;spacingLeft=6;overflow=hidden;" parent="dIEBpJOMzmCvZlWTN5sd-54" vertex="1">
          <mxGeometry x="30" width="280" height="38" as="geometry">
            <mxRectangle width="280" height="38" as="alternateBounds" />
          </mxGeometry>
        </mxCell>
        <mxCell id="nD4syaO1w29k3vmpNwM7-92" value="AREA GEOGRAFICA" style="shape=table;startSize=30;container=1;collapsible=1;childLayout=tableLayout;fixedRows=1;rowLines=0;fontStyle=1;align=center;resizeLast=1;" parent="1" vertex="1">
          <mxGeometry x="1490" y="460" width="180" height="120" as="geometry">
            <mxRectangle x="1500" y="410" width="150" height="30" as="alternateBounds" />
          </mxGeometry>
        </mxCell>
        <mxCell id="nD4syaO1w29k3vmpNwM7-93" value="" style="shape=tableRow;horizontal=0;startSize=0;swimlaneHead=0;swimlaneBody=0;fillColor=none;collapsible=0;dropTarget=0;points=[[0,0.5],[1,0.5]];portConstraint=eastwest;top=0;left=0;right=0;bottom=1;" parent="nD4syaO1w29k3vmpNwM7-92" vertex="1">
          <mxGeometry y="30" width="180" height="30" as="geometry" />
        </mxCell>
        <mxCell id="nD4syaO1w29k3vmpNwM7-94" value="PK" style="shape=partialRectangle;connectable=0;fillColor=none;top=0;left=0;bottom=0;right=0;fontStyle=1;overflow=hidden;" parent="nD4syaO1w29k3vmpNwM7-93" vertex="1">
          <mxGeometry width="30" height="30" as="geometry">
            <mxRectangle width="30" height="30" as="alternateBounds" />
          </mxGeometry>
        </mxCell>
        <mxCell id="nD4syaO1w29k3vmpNwM7-95" value="COD. ALFANUMERICO" style="shape=partialRectangle;connectable=0;fillColor=none;top=0;left=0;bottom=0;right=0;align=left;spacingLeft=6;fontStyle=5;overflow=hidden;" parent="nD4syaO1w29k3vmpNwM7-93" vertex="1">
          <mxGeometry x="30" width="150" height="30" as="geometry">
            <mxRectangle width="150" height="30" as="alternateBounds" />
          </mxGeometry>
        </mxCell>
        <mxCell id="nD4syaO1w29k3vmpNwM7-96" value="" style="shape=tableRow;horizontal=0;startSize=0;swimlaneHead=0;swimlaneBody=0;fillColor=none;collapsible=0;dropTarget=0;points=[[0,0.5],[1,0.5]];portConstraint=eastwest;top=0;left=0;right=0;bottom=0;" parent="nD4syaO1w29k3vmpNwM7-92" vertex="1">
          <mxGeometry y="60" width="180" height="30" as="geometry" />
        </mxCell>
        <mxCell id="nD4syaO1w29k3vmpNwM7-97" value="" style="shape=partialRectangle;connectable=0;fillColor=none;top=0;left=0;bottom=0;right=0;editable=1;overflow=hidden;" parent="nD4syaO1w29k3vmpNwM7-96" vertex="1">
          <mxGeometry width="30" height="30" as="geometry">
            <mxRectangle width="30" height="30" as="alternateBounds" />
          </mxGeometry>
        </mxCell>
        <mxCell id="nD4syaO1w29k3vmpNwM7-98" value="" style="shape=partialRectangle;connectable=0;fillColor=none;top=0;left=0;bottom=0;right=0;align=left;spacingLeft=6;overflow=hidden;" parent="nD4syaO1w29k3vmpNwM7-96" vertex="1">
          <mxGeometry x="30" width="150" height="30" as="geometry">
            <mxRectangle width="150" height="30" as="alternateBounds" />
          </mxGeometry>
        </mxCell>
        <mxCell id="nD4syaO1w29k3vmpNwM7-102" value="" style="shape=tableRow;horizontal=0;startSize=0;swimlaneHead=0;swimlaneBody=0;fillColor=none;collapsible=0;dropTarget=0;points=[[0,0.5],[1,0.5]];portConstraint=eastwest;top=0;left=0;right=0;bottom=0;" parent="nD4syaO1w29k3vmpNwM7-92" vertex="1">
          <mxGeometry y="90" width="180" height="30" as="geometry" />
        </mxCell>
        <mxCell id="nD4syaO1w29k3vmpNwM7-103" value="" style="shape=partialRectangle;connectable=0;fillColor=none;top=0;left=0;bottom=0;right=0;editable=1;overflow=hidden;" parent="nD4syaO1w29k3vmpNwM7-102" vertex="1">
          <mxGeometry width="30" height="30" as="geometry">
            <mxRectangle width="30" height="30" as="alternateBounds" />
          </mxGeometry>
        </mxCell>
        <mxCell id="nD4syaO1w29k3vmpNwM7-104" value="" style="shape=partialRectangle;connectable=0;fillColor=none;top=0;left=0;bottom=0;right=0;align=left;spacingLeft=6;overflow=hidden;" parent="nD4syaO1w29k3vmpNwM7-102" vertex="1">
          <mxGeometry x="30" width="150" height="30" as="geometry">
            <mxRectangle width="150" height="30" as="alternateBounds" />
          </mxGeometry>
        </mxCell>
        <mxCell id="nD4syaO1w29k3vmpNwM7-225" value="CITTA&#39;" style="shape=table;startSize=40;container=1;collapsible=1;childLayout=tableLayout;fixedRows=1;rowLines=0;fontStyle=1;align=center;resizeLast=1;" parent="1" vertex="1">
          <mxGeometry x="1865" y="440" width="130" height="160" as="geometry">
            <mxRectangle x="1875" y="390" width="78" height="40" as="alternateBounds" />
          </mxGeometry>
        </mxCell>
        <mxCell id="nD4syaO1w29k3vmpNwM7-226" value="" style="shape=tableRow;horizontal=0;startSize=0;swimlaneHead=0;swimlaneBody=0;fillColor=none;collapsible=0;dropTarget=0;points=[[0,0.5],[1,0.5]];portConstraint=eastwest;top=0;left=0;right=0;bottom=1;" parent="nD4syaO1w29k3vmpNwM7-225" vertex="1">
          <mxGeometry y="40" width="130" height="30" as="geometry" />
        </mxCell>
        <mxCell id="nD4syaO1w29k3vmpNwM7-227" value="PK" style="shape=partialRectangle;connectable=0;fillColor=none;top=0;left=0;bottom=0;right=0;fontStyle=1;overflow=hidden;" parent="nD4syaO1w29k3vmpNwM7-226" vertex="1">
          <mxGeometry width="30" height="30" as="geometry">
            <mxRectangle width="30" height="30" as="alternateBounds" />
          </mxGeometry>
        </mxCell>
        <mxCell id="nD4syaO1w29k3vmpNwM7-228" value="Città" style="shape=partialRectangle;connectable=0;fillColor=none;top=0;left=0;bottom=0;right=0;align=left;spacingLeft=6;fontStyle=5;overflow=hidden;" parent="nD4syaO1w29k3vmpNwM7-226" vertex="1">
          <mxGeometry x="30" width="100" height="30" as="geometry">
            <mxRectangle width="100" height="30" as="alternateBounds" />
          </mxGeometry>
        </mxCell>
        <mxCell id="nD4syaO1w29k3vmpNwM7-229" value="" style="shape=tableRow;horizontal=0;startSize=0;swimlaneHead=0;swimlaneBody=0;fillColor=none;collapsible=0;dropTarget=0;points=[[0,0.5],[1,0.5]];portConstraint=eastwest;top=0;left=0;right=0;bottom=0;" parent="nD4syaO1w29k3vmpNwM7-225" vertex="1">
          <mxGeometry y="70" width="130" height="30" as="geometry" />
        </mxCell>
        <mxCell id="nD4syaO1w29k3vmpNwM7-230" value="" style="shape=partialRectangle;connectable=0;fillColor=none;top=0;left=0;bottom=0;right=0;editable=1;overflow=hidden;" parent="nD4syaO1w29k3vmpNwM7-229" vertex="1">
          <mxGeometry width="30" height="30" as="geometry">
            <mxRectangle width="30" height="30" as="alternateBounds" />
          </mxGeometry>
        </mxCell>
        <mxCell id="nD4syaO1w29k3vmpNwM7-231" value="" style="shape=partialRectangle;connectable=0;fillColor=none;top=0;left=0;bottom=0;right=0;align=left;spacingLeft=6;overflow=hidden;" parent="nD4syaO1w29k3vmpNwM7-229" vertex="1">
          <mxGeometry x="30" width="100" height="30" as="geometry">
            <mxRectangle width="100" height="30" as="alternateBounds" />
          </mxGeometry>
        </mxCell>
        <mxCell id="nD4syaO1w29k3vmpNwM7-232" value="" style="shape=tableRow;horizontal=0;startSize=0;swimlaneHead=0;swimlaneBody=0;fillColor=none;collapsible=0;dropTarget=0;points=[[0,0.5],[1,0.5]];portConstraint=eastwest;top=0;left=0;right=0;bottom=0;" parent="nD4syaO1w29k3vmpNwM7-225" vertex="1">
          <mxGeometry y="100" width="130" height="30" as="geometry" />
        </mxCell>
        <mxCell id="nD4syaO1w29k3vmpNwM7-233" value="" style="shape=partialRectangle;connectable=0;fillColor=none;top=0;left=0;bottom=0;right=0;editable=1;overflow=hidden;" parent="nD4syaO1w29k3vmpNwM7-232" vertex="1">
          <mxGeometry width="30" height="30" as="geometry">
            <mxRectangle width="30" height="30" as="alternateBounds" />
          </mxGeometry>
        </mxCell>
        <mxCell id="nD4syaO1w29k3vmpNwM7-234" value="" style="shape=partialRectangle;connectable=0;fillColor=none;top=0;left=0;bottom=0;right=0;align=left;spacingLeft=6;overflow=hidden;" parent="nD4syaO1w29k3vmpNwM7-232" vertex="1">
          <mxGeometry x="30" width="100" height="30" as="geometry">
            <mxRectangle width="100" height="30" as="alternateBounds" />
          </mxGeometry>
        </mxCell>
        <mxCell id="nD4syaO1w29k3vmpNwM7-235" value="" style="shape=tableRow;horizontal=0;startSize=0;swimlaneHead=0;swimlaneBody=0;fillColor=none;collapsible=0;dropTarget=0;points=[[0,0.5],[1,0.5]];portConstraint=eastwest;top=0;left=0;right=0;bottom=0;" parent="nD4syaO1w29k3vmpNwM7-225" vertex="1">
          <mxGeometry y="130" width="130" height="30" as="geometry" />
        </mxCell>
        <mxCell id="nD4syaO1w29k3vmpNwM7-236" value="" style="shape=partialRectangle;connectable=0;fillColor=none;top=0;left=0;bottom=0;right=0;editable=1;overflow=hidden;" parent="nD4syaO1w29k3vmpNwM7-235" vertex="1">
          <mxGeometry width="30" height="30" as="geometry">
            <mxRectangle width="30" height="30" as="alternateBounds" />
          </mxGeometry>
        </mxCell>
        <mxCell id="nD4syaO1w29k3vmpNwM7-237" value="" style="shape=partialRectangle;connectable=0;fillColor=none;top=0;left=0;bottom=0;right=0;align=left;spacingLeft=6;overflow=hidden;" parent="nD4syaO1w29k3vmpNwM7-235" vertex="1">
          <mxGeometry x="30" width="100" height="30" as="geometry">
            <mxRectangle width="100" height="30" as="alternateBounds" />
          </mxGeometry>
        </mxCell>
        <mxCell id="dIEBpJOMzmCvZlWTN5sd-13" style="edgeStyle=orthogonalEdgeStyle;rounded=0;orthogonalLoop=1;jettySize=auto;html=1;exitX=0.5;exitY=1;exitDx=0;exitDy=0;entryX=0.5;entryY=0;entryDx=0;entryDy=0;" parent="1" source="nD4syaO1w29k3vmpNwM7-238" target="nD4syaO1w29k3vmpNwM7-92" edge="1">
          <mxGeometry relative="1" as="geometry" />
        </mxCell>
        <mxCell id="dIEBpJOMzmCvZlWTN5sd-29" style="edgeStyle=orthogonalEdgeStyle;rounded=0;orthogonalLoop=1;jettySize=auto;html=1;exitX=1;exitY=0.5;exitDx=0;exitDy=0;entryX=0;entryY=0.5;entryDx=0;entryDy=0;" parent="1" source="nD4syaO1w29k3vmpNwM7-238" target="pd-oHHgaTtue2NlZjyYk-14" edge="1">
          <mxGeometry relative="1" as="geometry" />
        </mxCell>
        <mxCell id="nD4syaO1w29k3vmpNwM7-238" value="**LAVORA IN" style="shape=rhombus;perimeter=rhombusPerimeter;whiteSpace=wrap;html=1;align=center;" parent="1" vertex="1">
          <mxGeometry x="1520" y="330" width="120" height="60" as="geometry" />
        </mxCell>
        <mxCell id="nD4syaO1w29k3vmpNwM7-240" value="DATA INIZIO" style="ellipse;whiteSpace=wrap;html=1;align=center;" parent="1" vertex="1">
          <mxGeometry x="1755" y="230" width="100" height="40" as="geometry" />
        </mxCell>
        <mxCell id="nD4syaO1w29k3vmpNwM7-244" value="DATA FINE" style="ellipse;whiteSpace=wrap;html=1;align=center;" parent="1" vertex="1">
          <mxGeometry x="1765" y="385" width="100" height="40" as="geometry" />
        </mxCell>
        <mxCell id="dIEBpJOMzmCvZlWTN5sd-142" style="edgeStyle=orthogonalEdgeStyle;rounded=0;orthogonalLoop=1;jettySize=auto;html=1;exitX=0;exitY=0.5;exitDx=0;exitDy=0;" parent="1" source="nD4syaO1w29k3vmpNwM7-250" target="nD4syaO1w29k3vmpNwM7-92" edge="1">
          <mxGeometry relative="1" as="geometry" />
        </mxCell>
        <mxCell id="nD4syaO1w29k3vmpNwM7-250" value="APPARTIENE A" style="shape=rhombus;perimeter=rhombusPerimeter;whiteSpace=wrap;html=1;align=center;" parent="1" vertex="1">
          <mxGeometry x="1720" y="490" width="115" height="60" as="geometry" />
        </mxCell>
        <mxCell id="dIEBpJOMzmCvZlWTN5sd-139" style="edgeStyle=orthogonalEdgeStyle;rounded=0;orthogonalLoop=1;jettySize=auto;html=1;exitX=1;exitY=0.5;exitDx=0;exitDy=0;" parent="1" source="nD4syaO1w29k3vmpNwM7-262" target="nD4syaO1w29k3vmpNwM7-14" edge="1">
          <mxGeometry relative="1" as="geometry">
            <Array as="points">
              <mxPoint x="710" y="140" />
              <mxPoint x="710" y="140" />
            </Array>
          </mxGeometry>
        </mxCell>
        <mxCell id="nD4syaO1w29k3vmpNwM7-262" value="STIPULA" style="shape=rhombus;perimeter=rhombusPerimeter;whiteSpace=wrap;html=1;align=center;" parent="1" vertex="1">
          <mxGeometry x="610" y="117.5" width="70" height="45" as="geometry" />
        </mxCell>
        <mxCell id="GLFpdwYYbRad9qR06OFG-2" value="" style="edgeStyle=entityRelationEdgeStyle;fontSize=12;html=1;endArrow=ERmany;startArrow=ERmany;rounded=0;" parent="1" edge="1">
          <mxGeometry width="100" height="100" relative="1" as="geometry">
            <mxPoint x="120" y="560" as="sourcePoint" />
            <mxPoint x="220" y="460" as="targetPoint" />
          </mxGeometry>
        </mxCell>
        <mxCell id="GLFpdwYYbRad9qR06OFG-3" value="" style="edgeStyle=entityRelationEdgeStyle;fontSize=12;html=1;endArrow=ERmandOne;startArrow=ERmandOne;rounded=0;" parent="1" edge="1">
          <mxGeometry width="100" height="100" relative="1" as="geometry">
            <mxPoint x="110" y="240" as="sourcePoint" />
            <mxPoint x="210" y="140" as="targetPoint" />
          </mxGeometry>
        </mxCell>
        <mxCell id="GLFpdwYYbRad9qR06OFG-4" value="" style="edgeStyle=entityRelationEdgeStyle;fontSize=12;html=1;endArrow=ERoneToMany;startArrow=ERmandOne;rounded=0;" parent="1" edge="1">
          <mxGeometry width="100" height="100" relative="1" as="geometry">
            <mxPoint x="110" y="410" as="sourcePoint" />
            <mxPoint x="210" y="310" as="targetPoint" />
          </mxGeometry>
        </mxCell>
        <mxCell id="dIEBpJOMzmCvZlWTN5sd-27" style="edgeStyle=orthogonalEdgeStyle;rounded=0;orthogonalLoop=1;jettySize=auto;html=1;exitX=1;exitY=0.5;exitDx=0;exitDy=0;" parent="1" source="pd-oHHgaTtue2NlZjyYk-1" target="nD4syaO1w29k3vmpNwM7-79" edge="1">
          <mxGeometry relative="1" as="geometry">
            <mxPoint x="1470" y="-140" as="targetPoint" />
          </mxGeometry>
        </mxCell>
        <mxCell id="pd-oHHgaTtue2NlZjyYk-1" value="&lt;font style=&quot;font-size: 19px;&quot;&gt;Registra&lt;/font&gt;" style="shape=rhombus;perimeter=rhombusPerimeter;whiteSpace=wrap;html=1;align=center;" parent="1" vertex="1">
          <mxGeometry x="1334" y="-175.75" width="96" height="71.5" as="geometry" />
        </mxCell>
        <mxCell id="pd-oHHgaTtue2NlZjyYk-12" value="" style="endArrow=none;html=1;rounded=0;fontSize=19;entryX=-0.001;entryY=0.646;entryDx=0;entryDy=0;exitX=1;exitY=0.5;exitDx=0;exitDy=0;entryPerimeter=0;" parent="1" source="nD4syaO1w29k3vmpNwM7-238" target="nD4syaO1w29k3vmpNwM7-240" edge="1">
          <mxGeometry relative="1" as="geometry">
            <mxPoint x="2185" y="345" as="sourcePoint" />
            <mxPoint x="2235" y="345" as="targetPoint" />
          </mxGeometry>
        </mxCell>
        <mxCell id="pd-oHHgaTtue2NlZjyYk-13" value="" style="endArrow=none;html=1;rounded=0;fontSize=19;entryX=0.013;entryY=0.343;entryDx=0;entryDy=0;entryPerimeter=0;exitX=1;exitY=0.5;exitDx=0;exitDy=0;" parent="1" source="nD4syaO1w29k3vmpNwM7-238" target="nD4syaO1w29k3vmpNwM7-244" edge="1">
          <mxGeometry relative="1" as="geometry">
            <mxPoint x="2215" y="355" as="sourcePoint" />
            <mxPoint x="2285" y="355" as="targetPoint" />
          </mxGeometry>
        </mxCell>
        <mxCell id="pd-oHHgaTtue2NlZjyYk-14" value="Tempo" style="swimlane;childLayout=stackLayout;horizontal=1;startSize=30;horizontalStack=0;rounded=1;fontSize=14;fontStyle=0;strokeWidth=2;resizeParent=0;resizeLast=1;shadow=0;dashed=0;align=center;" parent="1" vertex="1">
          <mxGeometry x="1765" y="290" width="100" height="80" as="geometry">
            <mxRectangle x="1775" y="240" width="80" height="30" as="alternateBounds" />
          </mxGeometry>
        </mxCell>
        <mxCell id="pd-oHHgaTtue2NlZjyYk-15" value="Data (PK)" style="align=left;strokeColor=none;fillColor=none;spacingLeft=4;fontSize=16;verticalAlign=top;resizable=0;rotatable=0;part=1;" parent="pd-oHHgaTtue2NlZjyYk-14" vertex="1">
          <mxGeometry y="30" width="100" height="50" as="geometry" />
        </mxCell>
        <mxCell id="dIEBpJOMzmCvZlWTN5sd-140" style="edgeStyle=orthogonalEdgeStyle;rounded=0;orthogonalLoop=1;jettySize=auto;html=1;exitX=0.5;exitY=1;exitDx=0;exitDy=0;" parent="1" source="7G08isXgEMkV2wekbxgx-1" target="nD4syaO1w29k3vmpNwM7-14" edge="1">
          <mxGeometry relative="1" as="geometry" />
        </mxCell>
        <mxCell id="7G08isXgEMkV2wekbxgx-1" value="&lt;div&gt;si riferisce a&lt;/div&gt;" style="rhombus;whiteSpace=wrap;html=1;startSize=20;fontStyle=1;" parent="1" vertex="1">
          <mxGeometry x="790" y="-160" width="80" height="80" as="geometry" />
        </mxCell>
        <mxCell id="UjYUpt8ojRkEc1T_COAz-8" style="edgeStyle=orthogonalEdgeStyle;rounded=0;orthogonalLoop=1;jettySize=auto;html=1;exitX=0.5;exitY=1;exitDx=0;exitDy=0;" parent="1" source="7G08isXgEMkV2wekbxgx-7" target="nD4syaO1w29k3vmpNwM7-66" edge="1">
          <mxGeometry relative="1" as="geometry" />
        </mxCell>
        <mxCell id="7G08isXgEMkV2wekbxgx-7" value="**contiene" style="rhombus;whiteSpace=wrap;html=1;startSize=30;fontStyle=1;" parent="1" vertex="1">
          <mxGeometry x="1232.5" y="330" width="90" height="60" as="geometry" />
        </mxCell>
        <mxCell id="dIEBpJOMzmCvZlWTN5sd-1" style="edgeStyle=orthogonalEdgeStyle;rounded=0;orthogonalLoop=1;jettySize=auto;html=1;exitX=0;exitY=0.5;exitDx=0;exitDy=0;entryX=1;entryY=0.5;entryDx=0;entryDy=0;" parent="1" source="nD4syaO1w29k3vmpNwM7-44" target="7G08isXgEMkV2wekbxgx-1" edge="1">
          <mxGeometry relative="1" as="geometry">
            <Array as="points">
              <mxPoint x="1070" y="-120" />
            </Array>
          </mxGeometry>
        </mxCell>
        <mxCell id="dIEBpJOMzmCvZlWTN5sd-52" style="edgeStyle=orthogonalEdgeStyle;rounded=0;orthogonalLoop=1;jettySize=auto;html=1;exitX=1;exitY=0.5;exitDx=0;exitDy=0;entryX=0;entryY=0.5;entryDx=0;entryDy=0;" parent="1" source="dIEBpJOMzmCvZlWTN5sd-10" target="dIEBpJOMzmCvZlWTN5sd-50" edge="1">
          <mxGeometry relative="1" as="geometry" />
        </mxCell>
        <mxCell id="UjYUpt8ojRkEc1T_COAz-4" style="edgeStyle=orthogonalEdgeStyle;rounded=0;orthogonalLoop=1;jettySize=auto;html=1;exitX=0.5;exitY=0;exitDx=0;exitDy=0;" parent="1" source="dIEBpJOMzmCvZlWTN5sd-10" edge="1">
          <mxGeometry relative="1" as="geometry">
            <mxPoint x="1579.608695652174" y="-40" as="targetPoint" />
          </mxGeometry>
        </mxCell>
        <mxCell id="dIEBpJOMzmCvZlWTN5sd-10" value="effettua" style="rhombus;whiteSpace=wrap;html=1;startSize=30;fontStyle=1;" parent="1" vertex="1">
          <mxGeometry x="1542.5" y="15" width="75" height="50" as="geometry" />
        </mxCell>
        <mxCell id="UjYUpt8ojRkEc1T_COAz-9" style="edgeStyle=orthogonalEdgeStyle;rounded=0;orthogonalLoop=1;jettySize=auto;html=1;exitX=0;exitY=0.5;exitDx=0;exitDy=0;" parent="1" source="dIEBpJOMzmCvZlWTN5sd-18" target="nD4syaO1w29k3vmpNwM7-14" edge="1">
          <mxGeometry relative="1" as="geometry" />
        </mxCell>
        <mxCell id="dIEBpJOMzmCvZlWTN5sd-18" value="si riferisce a" style="rhombus;whiteSpace=wrap;html=1;startSize=30;fontStyle=1;" parent="1" vertex="1">
          <mxGeometry x="1000" y="127.5" width="115" height="65" as="geometry" />
        </mxCell>
        <mxCell id="UjYUpt8ojRkEc1T_COAz-12" style="edgeStyle=orthogonalEdgeStyle;rounded=0;orthogonalLoop=1;jettySize=auto;html=1;exitX=0;exitY=0.5;exitDx=0;exitDy=0;entryX=1;entryY=0.5;entryDx=0;entryDy=0;" parent="1" source="dIEBpJOMzmCvZlWTN5sd-24" target="7G08isXgEMkV2wekbxgx-7" edge="1">
          <mxGeometry relative="1" as="geometry" />
        </mxCell>
        <mxCell id="dIEBpJOMzmCvZlWTN5sd-24" value="**CONSUMO" style="ellipse;whiteSpace=wrap;html=1;align=center;" parent="1" vertex="1">
          <mxGeometry x="1350" y="340" width="100" height="40" as="geometry" />
        </mxCell>
        <mxCell id="nD4syaO1w29k3vmpNwM7-1" value="CLIENTE" style="shape=table;startSize=30;container=1;collapsible=1;childLayout=tableLayout;fixedRows=1;rowLines=0;fontStyle=1;align=center;resizeLast=1;" parent="1" vertex="1">
          <mxGeometry x="360" y="5" width="210" height="270" as="geometry">
            <mxRectangle x="360" y="5" width="90" height="30" as="alternateBounds" />
          </mxGeometry>
        </mxCell>
        <mxCell id="nD4syaO1w29k3vmpNwM7-2" value="" style="shape=tableRow;horizontal=0;startSize=0;swimlaneHead=0;swimlaneBody=0;fillColor=none;collapsible=0;dropTarget=0;points=[[0,0.5],[1,0.5]];portConstraint=eastwest;top=0;left=0;right=0;bottom=1;" parent="nD4syaO1w29k3vmpNwM7-1" vertex="1">
          <mxGeometry y="30" width="210" height="30" as="geometry" />
        </mxCell>
        <mxCell id="nD4syaO1w29k3vmpNwM7-3" value="PK" style="shape=partialRectangle;connectable=0;fillColor=none;top=0;left=0;bottom=0;right=0;fontStyle=1;overflow=hidden;" parent="nD4syaO1w29k3vmpNwM7-2" vertex="1">
          <mxGeometry width="30" height="30" as="geometry">
            <mxRectangle width="30" height="30" as="alternateBounds" />
          </mxGeometry>
        </mxCell>
        <mxCell id="nD4syaO1w29k3vmpNwM7-4" value="CODICE CLIENTE" style="shape=partialRectangle;connectable=0;fillColor=none;top=0;left=0;bottom=0;right=0;align=left;spacingLeft=6;fontStyle=5;overflow=hidden;" parent="nD4syaO1w29k3vmpNwM7-2" vertex="1">
          <mxGeometry x="30" width="180" height="30" as="geometry">
            <mxRectangle width="180" height="30" as="alternateBounds" />
          </mxGeometry>
        </mxCell>
        <mxCell id="nD4syaO1w29k3vmpNwM7-11" value="" style="shape=tableRow;horizontal=0;startSize=0;swimlaneHead=0;swimlaneBody=0;fillColor=none;collapsible=0;dropTarget=0;points=[[0,0.5],[1,0.5]];portConstraint=eastwest;top=0;left=0;right=0;bottom=0;" parent="nD4syaO1w29k3vmpNwM7-1" vertex="1">
          <mxGeometry y="60" width="210" height="20" as="geometry" />
        </mxCell>
        <mxCell id="nD4syaO1w29k3vmpNwM7-12" value="" style="shape=partialRectangle;connectable=0;fillColor=none;top=0;left=0;bottom=0;right=0;editable=1;overflow=hidden;" parent="nD4syaO1w29k3vmpNwM7-11" vertex="1">
          <mxGeometry width="30" height="20" as="geometry">
            <mxRectangle width="30" height="20" as="alternateBounds" />
          </mxGeometry>
        </mxCell>
        <mxCell id="nD4syaO1w29k3vmpNwM7-13" value="TIPOLOGIA CLIENTE" style="shape=partialRectangle;connectable=0;fillColor=none;top=0;left=0;bottom=0;right=0;align=left;spacingLeft=6;overflow=hidden;" parent="nD4syaO1w29k3vmpNwM7-11" vertex="1">
          <mxGeometry x="30" width="180" height="20" as="geometry">
            <mxRectangle width="180" height="20" as="alternateBounds" />
          </mxGeometry>
        </mxCell>
        <mxCell id="dIEBpJOMzmCvZlWTN5sd-92" value="" style="shape=tableRow;horizontal=0;startSize=0;swimlaneHead=0;swimlaneBody=0;fillColor=none;collapsible=0;dropTarget=0;points=[[0,0.5],[1,0.5]];portConstraint=eastwest;top=0;left=0;right=0;bottom=0;" parent="nD4syaO1w29k3vmpNwM7-1" vertex="1">
          <mxGeometry y="80" width="210" height="20" as="geometry" />
        </mxCell>
        <mxCell id="dIEBpJOMzmCvZlWTN5sd-93" value="" style="shape=partialRectangle;connectable=0;fillColor=none;top=0;left=0;bottom=0;right=0;editable=1;overflow=hidden;" parent="dIEBpJOMzmCvZlWTN5sd-92" vertex="1">
          <mxGeometry width="30" height="20" as="geometry">
            <mxRectangle width="30" height="20" as="alternateBounds" />
          </mxGeometry>
        </mxCell>
        <mxCell id="dIEBpJOMzmCvZlWTN5sd-94" value="NOME" style="shape=partialRectangle;connectable=0;fillColor=none;top=0;left=0;bottom=0;right=0;align=left;spacingLeft=6;overflow=hidden;" parent="dIEBpJOMzmCvZlWTN5sd-92" vertex="1">
          <mxGeometry x="30" width="180" height="20" as="geometry">
            <mxRectangle width="180" height="20" as="alternateBounds" />
          </mxGeometry>
        </mxCell>
        <mxCell id="dIEBpJOMzmCvZlWTN5sd-96" value="" style="shape=tableRow;horizontal=0;startSize=0;swimlaneHead=0;swimlaneBody=0;fillColor=none;collapsible=0;dropTarget=0;points=[[0,0.5],[1,0.5]];portConstraint=eastwest;top=0;left=0;right=0;bottom=0;" parent="nD4syaO1w29k3vmpNwM7-1" vertex="1">
          <mxGeometry y="100" width="210" height="20" as="geometry" />
        </mxCell>
        <mxCell id="dIEBpJOMzmCvZlWTN5sd-97" value="" style="shape=partialRectangle;connectable=0;fillColor=none;top=0;left=0;bottom=0;right=0;editable=1;overflow=hidden;" parent="dIEBpJOMzmCvZlWTN5sd-96" vertex="1">
          <mxGeometry width="30" height="20" as="geometry">
            <mxRectangle width="30" height="20" as="alternateBounds" />
          </mxGeometry>
        </mxCell>
        <mxCell id="dIEBpJOMzmCvZlWTN5sd-98" value="COGNOME" style="shape=partialRectangle;connectable=0;fillColor=none;top=0;left=0;bottom=0;right=0;align=left;spacingLeft=6;overflow=hidden;" parent="dIEBpJOMzmCvZlWTN5sd-96" vertex="1">
          <mxGeometry x="30" width="180" height="20" as="geometry">
            <mxRectangle width="180" height="20" as="alternateBounds" />
          </mxGeometry>
        </mxCell>
        <mxCell id="nD4syaO1w29k3vmpNwM7-5" value="" style="shape=tableRow;horizontal=0;startSize=0;swimlaneHead=0;swimlaneBody=0;fillColor=none;collapsible=0;dropTarget=0;points=[[0,0.5],[1,0.5]];portConstraint=eastwest;top=0;left=0;right=0;bottom=0;" parent="nD4syaO1w29k3vmpNwM7-1" vertex="1">
          <mxGeometry y="120" width="210" height="30" as="geometry" />
        </mxCell>
        <mxCell id="nD4syaO1w29k3vmpNwM7-6" value="" style="shape=partialRectangle;connectable=0;fillColor=none;top=0;left=0;bottom=0;right=0;editable=1;overflow=hidden;" parent="nD4syaO1w29k3vmpNwM7-5" vertex="1">
          <mxGeometry width="30" height="30" as="geometry">
            <mxRectangle width="30" height="30" as="alternateBounds" />
          </mxGeometry>
        </mxCell>
        <mxCell id="nD4syaO1w29k3vmpNwM7-7" value="NUMERO TELEFONO" style="shape=partialRectangle;connectable=0;fillColor=none;top=0;left=0;bottom=0;right=0;align=left;spacingLeft=6;overflow=hidden;" parent="nD4syaO1w29k3vmpNwM7-5" vertex="1">
          <mxGeometry x="30" width="180" height="30" as="geometry">
            <mxRectangle width="180" height="30" as="alternateBounds" />
          </mxGeometry>
        </mxCell>
        <mxCell id="nD4syaO1w29k3vmpNwM7-8" value="" style="shape=tableRow;horizontal=0;startSize=0;swimlaneHead=0;swimlaneBody=0;fillColor=none;collapsible=0;dropTarget=0;points=[[0,0.5],[1,0.5]];portConstraint=eastwest;top=0;left=0;right=0;bottom=0;" parent="nD4syaO1w29k3vmpNwM7-1" vertex="1">
          <mxGeometry y="150" width="210" height="30" as="geometry" />
        </mxCell>
        <mxCell id="nD4syaO1w29k3vmpNwM7-9" value="" style="shape=partialRectangle;connectable=0;fillColor=none;top=0;left=0;bottom=0;right=0;editable=1;overflow=hidden;" parent="nD4syaO1w29k3vmpNwM7-8" vertex="1">
          <mxGeometry width="30" height="30" as="geometry">
            <mxRectangle width="30" height="30" as="alternateBounds" />
          </mxGeometry>
        </mxCell>
        <mxCell id="nD4syaO1w29k3vmpNwM7-10" value="INDIRIZZO" style="shape=partialRectangle;connectable=0;fillColor=none;top=0;left=0;bottom=0;right=0;align=left;spacingLeft=6;overflow=hidden;" parent="nD4syaO1w29k3vmpNwM7-8" vertex="1">
          <mxGeometry x="30" width="180" height="30" as="geometry">
            <mxRectangle width="180" height="30" as="alternateBounds" />
          </mxGeometry>
        </mxCell>
        <mxCell id="dIEBpJOMzmCvZlWTN5sd-73" value="" style="shape=tableRow;horizontal=0;startSize=0;swimlaneHead=0;swimlaneBody=0;fillColor=none;collapsible=0;dropTarget=0;points=[[0,0.5],[1,0.5]];portConstraint=eastwest;top=0;left=0;right=0;bottom=0;" parent="nD4syaO1w29k3vmpNwM7-1" vertex="1">
          <mxGeometry y="180" width="210" height="30" as="geometry" />
        </mxCell>
        <mxCell id="dIEBpJOMzmCvZlWTN5sd-74" value="" style="shape=partialRectangle;connectable=0;fillColor=none;top=0;left=0;bottom=0;right=0;editable=1;overflow=hidden;" parent="dIEBpJOMzmCvZlWTN5sd-73" vertex="1">
          <mxGeometry width="30" height="30" as="geometry">
            <mxRectangle width="30" height="30" as="alternateBounds" />
          </mxGeometry>
        </mxCell>
        <mxCell id="dIEBpJOMzmCvZlWTN5sd-75" value="RAGIONE SOCIALE" style="shape=partialRectangle;connectable=0;fillColor=none;top=0;left=0;bottom=0;right=0;align=left;spacingLeft=6;overflow=hidden;" parent="dIEBpJOMzmCvZlWTN5sd-73" vertex="1">
          <mxGeometry x="30" width="180" height="30" as="geometry">
            <mxRectangle width="180" height="30" as="alternateBounds" />
          </mxGeometry>
        </mxCell>
        <mxCell id="dIEBpJOMzmCvZlWTN5sd-99" value="" style="shape=tableRow;horizontal=0;startSize=0;swimlaneHead=0;swimlaneBody=0;fillColor=none;collapsible=0;dropTarget=0;points=[[0,0.5],[1,0.5]];portConstraint=eastwest;top=0;left=0;right=0;bottom=0;" parent="nD4syaO1w29k3vmpNwM7-1" vertex="1">
          <mxGeometry y="210" width="210" height="30" as="geometry" />
        </mxCell>
        <mxCell id="dIEBpJOMzmCvZlWTN5sd-100" value="" style="shape=partialRectangle;connectable=0;fillColor=none;top=0;left=0;bottom=0;right=0;editable=1;overflow=hidden;" parent="dIEBpJOMzmCvZlWTN5sd-99" vertex="1">
          <mxGeometry width="30" height="30" as="geometry">
            <mxRectangle width="30" height="30" as="alternateBounds" />
          </mxGeometry>
        </mxCell>
        <mxCell id="dIEBpJOMzmCvZlWTN5sd-101" value="NOME PERSONA RIF." style="shape=partialRectangle;connectable=0;fillColor=none;top=0;left=0;bottom=0;right=0;align=left;spacingLeft=6;overflow=hidden;" parent="dIEBpJOMzmCvZlWTN5sd-99" vertex="1">
          <mxGeometry x="30" width="180" height="30" as="geometry">
            <mxRectangle width="180" height="30" as="alternateBounds" />
          </mxGeometry>
        </mxCell>
        <mxCell id="dIEBpJOMzmCvZlWTN5sd-102" value="" style="shape=tableRow;horizontal=0;startSize=0;swimlaneHead=0;swimlaneBody=0;fillColor=none;collapsible=0;dropTarget=0;points=[[0,0.5],[1,0.5]];portConstraint=eastwest;top=0;left=0;right=0;bottom=0;" parent="nD4syaO1w29k3vmpNwM7-1" vertex="1">
          <mxGeometry y="240" width="210" height="30" as="geometry" />
        </mxCell>
        <mxCell id="dIEBpJOMzmCvZlWTN5sd-103" value="" style="shape=partialRectangle;connectable=0;fillColor=none;top=0;left=0;bottom=0;right=0;editable=1;overflow=hidden;" parent="dIEBpJOMzmCvZlWTN5sd-102" vertex="1">
          <mxGeometry width="30" height="30" as="geometry">
            <mxRectangle width="30" height="30" as="alternateBounds" />
          </mxGeometry>
        </mxCell>
        <mxCell id="dIEBpJOMzmCvZlWTN5sd-104" value="COGNOME PERSONA RIF." style="shape=partialRectangle;connectable=0;fillColor=none;top=0;left=0;bottom=0;right=0;align=left;spacingLeft=6;overflow=hidden;" parent="dIEBpJOMzmCvZlWTN5sd-102" vertex="1">
          <mxGeometry x="30" width="180" height="30" as="geometry">
            <mxRectangle width="180" height="30" as="alternateBounds" />
          </mxGeometry>
        </mxCell>
        <mxCell id="dIEBpJOMzmCvZlWTN5sd-37" value="(1,1)" style="text;html=1;align=center;verticalAlign=middle;resizable=0;points=[];autosize=1;strokeColor=none;fillColor=none;" parent="1" vertex="1">
          <mxGeometry x="560" y="110" width="50" height="30" as="geometry" />
        </mxCell>
        <mxCell id="dIEBpJOMzmCvZlWTN5sd-38" value="(1,1)" style="text;html=1;align=center;verticalAlign=middle;resizable=0;points=[];autosize=1;strokeColor=none;fillColor=none;" parent="1" vertex="1">
          <mxGeometry x="675" y="110" width="50" height="30" as="geometry" />
        </mxCell>
        <mxCell id="dIEBpJOMzmCvZlWTN5sd-45" value="(1,N)" style="text;html=1;align=center;verticalAlign=middle;resizable=0;points=[];autosize=1;strokeColor=none;fillColor=none;" parent="1" vertex="1">
          <mxGeometry x="1265" y="-170" width="50" height="30" as="geometry" />
        </mxCell>
        <mxCell id="dIEBpJOMzmCvZlWTN5sd-49" value="(1,1)" style="text;html=1;align=center;verticalAlign=middle;resizable=0;points=[];autosize=1;strokeColor=none;fillColor=none;" parent="1" vertex="1">
          <mxGeometry x="1430" y="-170" width="50" height="30" as="geometry" />
        </mxCell>
        <mxCell id="dIEBpJOMzmCvZlWTN5sd-50" value="Tempo" style="swimlane;childLayout=stackLayout;horizontal=1;startSize=30;horizontalStack=0;rounded=1;fontSize=14;fontStyle=0;strokeWidth=2;resizeParent=0;resizeLast=1;shadow=0;dashed=0;align=center;" parent="1" vertex="1">
          <mxGeometry x="1724" width="90" height="80" as="geometry" />
        </mxCell>
        <mxCell id="dIEBpJOMzmCvZlWTN5sd-51" value="Data (PK)&#xa;Ora&#xa;&#xa;&#xa;" style="align=left;strokeColor=none;fillColor=none;spacingLeft=4;fontSize=16;verticalAlign=top;resizable=0;rotatable=0;part=1;" parent="dIEBpJOMzmCvZlWTN5sd-50" vertex="1">
          <mxGeometry y="30" width="90" height="50" as="geometry" />
        </mxCell>
        <mxCell id="dIEBpJOMzmCvZlWTN5sd-53" value="(0,1)" style="text;html=1;align=center;verticalAlign=middle;resizable=0;points=[];autosize=1;strokeColor=none;fillColor=none;" parent="1" vertex="1">
          <mxGeometry x="1605" y="15" width="50" height="30" as="geometry" />
        </mxCell>
        <mxCell id="dIEBpJOMzmCvZlWTN5sd-57" value="(1,1)" style="text;html=1;align=center;verticalAlign=middle;resizable=0;points=[];autosize=1;strokeColor=none;fillColor=none;" parent="1" vertex="1">
          <mxGeometry x="1585" y="-50" width="50" height="30" as="geometry" />
        </mxCell>
        <mxCell id="dIEBpJOMzmCvZlWTN5sd-58" value="(1,N)" style="text;html=1;align=center;verticalAlign=middle;resizable=0;points=[];autosize=1;strokeColor=none;fillColor=none;" parent="1" vertex="1">
          <mxGeometry x="1525" y="80" width="50" height="30" as="geometry" />
        </mxCell>
        <mxCell id="dIEBpJOMzmCvZlWTN5sd-59" value="(1,N)" style="text;html=1;align=center;verticalAlign=middle;resizable=0;points=[];autosize=1;strokeColor=none;fillColor=none;" parent="1" vertex="1">
          <mxGeometry x="1535" y="260" width="50" height="30" as="geometry" />
        </mxCell>
        <mxCell id="dIEBpJOMzmCvZlWTN5sd-60" value="(1,N)" style="text;html=1;align=center;verticalAlign=middle;resizable=0;points=[];autosize=1;strokeColor=none;fillColor=none;" parent="1" vertex="1">
          <mxGeometry x="1535" y="430" width="50" height="30" as="geometry" />
        </mxCell>
        <mxCell id="dIEBpJOMzmCvZlWTN5sd-61" value="(1,1)" style="text;html=1;align=center;verticalAlign=middle;resizable=0;points=[];autosize=1;strokeColor=none;fillColor=none;" parent="1" vertex="1">
          <mxGeometry x="1820" y="490" width="50" height="30" as="geometry" />
        </mxCell>
        <mxCell id="dIEBpJOMzmCvZlWTN5sd-62" value="(1,N)" style="text;html=1;align=center;verticalAlign=middle;resizable=0;points=[];autosize=1;strokeColor=none;fillColor=none;" parent="1" vertex="1">
          <mxGeometry x="1670" y="490" width="50" height="30" as="geometry" />
        </mxCell>
        <mxCell id="dIEBpJOMzmCvZlWTN5sd-63" value="(1,N)" style="text;html=1;align=center;verticalAlign=middle;resizable=0;points=[];autosize=1;strokeColor=none;fillColor=none;" parent="1" vertex="1">
          <mxGeometry x="1652" y="330" width="50" height="30" as="geometry" />
        </mxCell>
        <mxCell id="dIEBpJOMzmCvZlWTN5sd-64" value="(1,N)" style="text;html=1;align=center;verticalAlign=middle;resizable=0;points=[];autosize=1;strokeColor=none;fillColor=none;" parent="1" vertex="1">
          <mxGeometry x="1724" y="330" width="50" height="30" as="geometry" />
        </mxCell>
        <mxCell id="dIEBpJOMzmCvZlWTN5sd-67" value="(1,1)" style="text;html=1;align=center;verticalAlign=middle;resizable=0;points=[];autosize=1;strokeColor=none;fillColor=none;" parent="1" vertex="1">
          <mxGeometry x="770" y="-50" width="50" height="30" as="geometry" />
        </mxCell>
        <mxCell id="dIEBpJOMzmCvZlWTN5sd-68" value="(1,1)" style="text;html=1;align=center;verticalAlign=middle;resizable=0;points=[];autosize=1;strokeColor=none;fillColor=none;" parent="1" vertex="1">
          <mxGeometry x="1020" y="-150" width="50" height="30" as="geometry" />
        </mxCell>
        <mxCell id="dIEBpJOMzmCvZlWTN5sd-69" value="(1,N)" style="text;html=1;align=center;verticalAlign=middle;resizable=0;points=[];autosize=1;strokeColor=none;fillColor=none;" parent="1" vertex="1">
          <mxGeometry x="940" y="125" width="50" height="30" as="geometry" />
        </mxCell>
        <mxCell id="dIEBpJOMzmCvZlWTN5sd-70" value="(1,1)" style="text;html=1;align=center;verticalAlign=middle;resizable=0;points=[];autosize=1;strokeColor=none;fillColor=none;" parent="1" vertex="1">
          <mxGeometry x="1115" y="125" width="50" height="30" as="geometry" />
        </mxCell>
        <mxCell id="dIEBpJOMzmCvZlWTN5sd-71" value="(1,N)" style="text;html=1;align=center;verticalAlign=middle;resizable=0;points=[];autosize=1;strokeColor=none;fillColor=none;" parent="1" vertex="1">
          <mxGeometry x="1272.5" y="395" width="50" height="30" as="geometry" />
        </mxCell>
        <mxCell id="dIEBpJOMzmCvZlWTN5sd-72" value="(1,N)" style="text;html=1;align=center;verticalAlign=middle;resizable=0;points=[];autosize=1;strokeColor=none;fillColor=none;" parent="1" vertex="1">
          <mxGeometry x="1272.5" y="290" width="50" height="30" as="geometry" />
        </mxCell>
        <mxCell id="UjYUpt8ojRkEc1T_COAz-2" style="edgeStyle=orthogonalEdgeStyle;rounded=0;orthogonalLoop=1;jettySize=auto;html=1;" parent="1" source="nD4syaO1w29k3vmpNwM7-40" target="pd-oHHgaTtue2NlZjyYk-1" edge="1">
          <mxGeometry relative="1" as="geometry" />
        </mxCell>
        <mxCell id="UjYUpt8ojRkEc1T_COAz-5" style="edgeStyle=orthogonalEdgeStyle;rounded=0;orthogonalLoop=1;jettySize=auto;html=1;" parent="1" source="nD4syaO1w29k3vmpNwM7-27" target="nD4syaO1w29k3vmpNwM7-238" edge="1">
          <mxGeometry relative="1" as="geometry" />
        </mxCell>
        <mxCell id="UjYUpt8ojRkEc1T_COAz-6" style="edgeStyle=orthogonalEdgeStyle;rounded=0;orthogonalLoop=1;jettySize=auto;html=1;exitX=0;exitY=0.5;exitDx=0;exitDy=0;" parent="1" source="nD4syaO1w29k3vmpNwM7-229" target="nD4syaO1w29k3vmpNwM7-250" edge="1">
          <mxGeometry relative="1" as="geometry" />
        </mxCell>
        <mxCell id="UjYUpt8ojRkEc1T_COAz-10" style="edgeStyle=orthogonalEdgeStyle;rounded=0;orthogonalLoop=1;jettySize=auto;html=1;exitX=0;exitY=0.5;exitDx=0;exitDy=0;entryX=0.957;entryY=0.492;entryDx=0;entryDy=0;entryPerimeter=0;" parent="1" source="nD4syaO1w29k3vmpNwM7-216" target="dIEBpJOMzmCvZlWTN5sd-18" edge="1">
          <mxGeometry relative="1" as="geometry" />
        </mxCell>
        <mxCell id="UjYUpt8ojRkEc1T_COAz-11" style="edgeStyle=orthogonalEdgeStyle;rounded=0;orthogonalLoop=1;jettySize=auto;html=1;exitX=1;exitY=0.5;exitDx=0;exitDy=0;entryX=0.143;entryY=0.493;entryDx=0;entryDy=0;entryPerimeter=0;" parent="1" source="nD4syaO1w29k3vmpNwM7-5" target="nD4syaO1w29k3vmpNwM7-262" edge="1">
          <mxGeometry relative="1" as="geometry" />
        </mxCell>
      </root>
    </mxGraphModel>
  </diagram>
  <diagram id="TtdAGoWYVx0oQgbGPtCT" name="Pagina-2">
    <mxGraphModel dx="1566" dy="617" grid="1" gridSize="10" guides="1" tooltips="1" connect="1" arrows="1" fold="1" page="1" pageScale="1" pageWidth="827" pageHeight="1169" math="0" shadow="0">
      <root>
        <mxCell id="0" />
        <mxCell id="1" parent="0" />
        <mxCell id="zR9AkgcWk_SplZUq-Iif-14" value="Bolletta" style="swimlane;fontStyle=0;childLayout=stackLayout;horizontal=1;startSize=26;horizontalStack=0;resizeParent=1;resizeParentMax=0;resizeLast=0;collapsible=1;marginBottom=0;align=center;fontSize=14;" parent="1" vertex="1">
          <mxGeometry x="334" y="190" width="160" height="446" as="geometry" />
        </mxCell>
        <mxCell id="zR9AkgcWk_SplZUq-Iif-15" value="Chiave Tempo (FK)" style="text;strokeColor=none;fillColor=none;spacingLeft=4;spacingRight=4;overflow=hidden;rotatable=0;points=[[0,0.5],[1,0.5]];portConstraint=eastwest;fontSize=12;" parent="zR9AkgcWk_SplZUq-Iif-14" vertex="1">
          <mxGeometry y="26" width="160" height="30" as="geometry" />
        </mxCell>
        <mxCell id="zR9AkgcWk_SplZUq-Iif-16" value="Chiave Cliente (FK)&#xa;" style="text;strokeColor=none;fillColor=none;spacingLeft=4;spacingRight=4;overflow=hidden;rotatable=0;points=[[0,0.5],[1,0.5]];portConstraint=eastwest;fontSize=12;" parent="zR9AkgcWk_SplZUq-Iif-14" vertex="1">
          <mxGeometry y="56" width="160" height="30" as="geometry" />
        </mxCell>
        <mxCell id="zR9AkgcWk_SplZUq-Iif-17" value="Chiave Contratto (FK)&#xa;" style="text;strokeColor=none;fillColor=none;spacingLeft=4;spacingRight=4;overflow=hidden;rotatable=0;points=[[0,0.5],[1,0.5]];portConstraint=eastwest;fontSize=12;" parent="zR9AkgcWk_SplZUq-Iif-14" vertex="1">
          <mxGeometry y="86" width="160" height="24" as="geometry" />
        </mxCell>
        <mxCell id="zR9AkgcWk_SplZUq-Iif-22" value="Chiave Contatore (FK)" style="text;strokeColor=none;fillColor=none;spacingLeft=4;spacingRight=4;overflow=hidden;rotatable=0;points=[[0,0.5],[1,0.5]];portConstraint=eastwest;fontSize=12;" parent="zR9AkgcWk_SplZUq-Iif-14" vertex="1">
          <mxGeometry y="110" width="160" height="24" as="geometry" />
        </mxCell>
        <mxCell id="zR9AkgcWk_SplZUq-Iif-23" value="Data Emissione&#xa;" style="text;strokeColor=none;fillColor=none;spacingLeft=4;spacingRight=4;overflow=hidden;rotatable=0;points=[[0,0.5],[1,0.5]];portConstraint=eastwest;fontSize=12;" parent="zR9AkgcWk_SplZUq-Iif-14" vertex="1">
          <mxGeometry y="134" width="160" height="24" as="geometry" />
        </mxCell>
        <mxCell id="zR9AkgcWk_SplZUq-Iif-24" value="Periodo di riferimento" style="text;strokeColor=none;fillColor=none;spacingLeft=4;spacingRight=4;overflow=hidden;rotatable=0;points=[[0,0.5],[1,0.5]];portConstraint=eastwest;fontSize=12;" parent="zR9AkgcWk_SplZUq-Iif-14" vertex="1">
          <mxGeometry y="158" width="160" height="24" as="geometry" />
        </mxCell>
        <mxCell id="zR9AkgcWk_SplZUq-Iif-25" value="Data scadenza pagamento" style="text;strokeColor=none;fillColor=none;spacingLeft=4;spacingRight=4;overflow=hidden;rotatable=0;points=[[0,0.5],[1,0.5]];portConstraint=eastwest;fontSize=12;" parent="zR9AkgcWk_SplZUq-Iif-14" vertex="1">
          <mxGeometry y="182" width="160" height="24" as="geometry" />
        </mxCell>
        <mxCell id="zR9AkgcWk_SplZUq-Iif-26" value="Consumo fascia 1" style="text;strokeColor=none;fillColor=none;spacingLeft=4;spacingRight=4;overflow=hidden;rotatable=0;points=[[0,0.5],[1,0.5]];portConstraint=eastwest;fontSize=12;" parent="zR9AkgcWk_SplZUq-Iif-14" vertex="1">
          <mxGeometry y="206" width="160" height="24" as="geometry" />
        </mxCell>
        <mxCell id="zR9AkgcWk_SplZUq-Iif-27" value="Consumo fascia 2" style="text;strokeColor=none;fillColor=none;spacingLeft=4;spacingRight=4;overflow=hidden;rotatable=0;points=[[0,0.5],[1,0.5]];portConstraint=eastwest;fontSize=12;" parent="zR9AkgcWk_SplZUq-Iif-14" vertex="1">
          <mxGeometry y="230" width="160" height="24" as="geometry" />
        </mxCell>
        <mxCell id="zR9AkgcWk_SplZUq-Iif-28" value="Consumo fascia 3" style="text;strokeColor=none;fillColor=none;spacingLeft=4;spacingRight=4;overflow=hidden;rotatable=0;points=[[0,0.5],[1,0.5]];portConstraint=eastwest;fontSize=12;" parent="zR9AkgcWk_SplZUq-Iif-14" vertex="1">
          <mxGeometry y="254" width="160" height="24" as="geometry" />
        </mxCell>
        <mxCell id="zR9AkgcWk_SplZUq-Iif-29" value="Prezzo KWh fascia 1" style="text;strokeColor=none;fillColor=none;spacingLeft=4;spacingRight=4;overflow=hidden;rotatable=0;points=[[0,0.5],[1,0.5]];portConstraint=eastwest;fontSize=12;" parent="zR9AkgcWk_SplZUq-Iif-14" vertex="1">
          <mxGeometry y="278" width="160" height="24" as="geometry" />
        </mxCell>
        <mxCell id="zR9AkgcWk_SplZUq-Iif-30" value="Prezzo Kwh fascia 2" style="text;strokeColor=none;fillColor=none;spacingLeft=4;spacingRight=4;overflow=hidden;rotatable=0;points=[[0,0.5],[1,0.5]];portConstraint=eastwest;fontSize=12;" parent="zR9AkgcWk_SplZUq-Iif-14" vertex="1">
          <mxGeometry y="302" width="160" height="24" as="geometry" />
        </mxCell>
        <mxCell id="zR9AkgcWk_SplZUq-Iif-31" value="Prezzo KWh fascia 3" style="text;strokeColor=none;fillColor=none;spacingLeft=4;spacingRight=4;overflow=hidden;rotatable=0;points=[[0,0.5],[1,0.5]];portConstraint=eastwest;fontSize=12;" parent="zR9AkgcWk_SplZUq-Iif-14" vertex="1">
          <mxGeometry y="326" width="160" height="24" as="geometry" />
        </mxCell>
        <mxCell id="zR9AkgcWk_SplZUq-Iif-32" value="Somma da pagare 1" style="text;strokeColor=none;fillColor=none;spacingLeft=4;spacingRight=4;overflow=hidden;rotatable=0;points=[[0,0.5],[1,0.5]];portConstraint=eastwest;fontSize=12;" parent="zR9AkgcWk_SplZUq-Iif-14" vertex="1">
          <mxGeometry y="350" width="160" height="24" as="geometry" />
        </mxCell>
        <mxCell id="zR9AkgcWk_SplZUq-Iif-33" value="Somma da pagare 2" style="text;strokeColor=none;fillColor=none;spacingLeft=4;spacingRight=4;overflow=hidden;rotatable=0;points=[[0,0.5],[1,0.5]];portConstraint=eastwest;fontSize=12;" parent="zR9AkgcWk_SplZUq-Iif-14" vertex="1">
          <mxGeometry y="374" width="160" height="24" as="geometry" />
        </mxCell>
        <mxCell id="zR9AkgcWk_SplZUq-Iif-34" value="Somma da pagare 3" style="text;strokeColor=none;fillColor=none;spacingLeft=4;spacingRight=4;overflow=hidden;rotatable=0;points=[[0,0.5],[1,0.5]];portConstraint=eastwest;fontSize=12;" parent="zR9AkgcWk_SplZUq-Iif-14" vertex="1">
          <mxGeometry y="398" width="160" height="24" as="geometry" />
        </mxCell>
        <mxCell id="zR9AkgcWk_SplZUq-Iif-35" value="Totale da pagare" style="text;strokeColor=none;fillColor=none;spacingLeft=4;spacingRight=4;overflow=hidden;rotatable=0;points=[[0,0.5],[1,0.5]];portConstraint=eastwest;fontSize=12;" parent="zR9AkgcWk_SplZUq-Iif-14" vertex="1">
          <mxGeometry y="422" width="160" height="24" as="geometry" />
        </mxCell>
        <mxCell id="zR9AkgcWk_SplZUq-Iif-39" value="Tempo" style="swimlane;childLayout=stackLayout;horizontal=1;startSize=30;horizontalStack=0;rounded=1;fontSize=14;fontStyle=0;strokeWidth=2;resizeParent=0;resizeLast=1;shadow=0;dashed=0;align=center;" parent="1" vertex="1">
          <mxGeometry x="90" y="60" width="160" height="180" as="geometry" />
        </mxCell>
        <mxCell id="zR9AkgcWk_SplZUq-Iif-40" value="Chiave Tempo (SK)&#xa;Data&#xa;Anno&#xa;Mese&#xa;Giorno&#xa;Descrizione data&#xa;Giorno della settimana&#xa;Descrizione mese-anno&#xa;Weekday(o weekend)&#xa;&#xa;" style="align=left;strokeColor=none;fillColor=none;spacingLeft=4;fontSize=12;verticalAlign=top;resizable=0;rotatable=0;part=1;" parent="zR9AkgcWk_SplZUq-Iif-39" vertex="1">
          <mxGeometry y="30" width="160" height="150" as="geometry" />
        </mxCell>
        <mxCell id="zR9AkgcWk_SplZUq-Iif-43" value="" style="endArrow=none;html=1;rounded=0;entryX=0.007;entryY=-0.236;entryDx=0;entryDy=0;entryPerimeter=0;" parent="1" target="zR9AkgcWk_SplZUq-Iif-17" edge="1">
          <mxGeometry relative="1" as="geometry">
            <mxPoint x="250" y="170" as="sourcePoint" />
            <mxPoint x="410" y="170" as="targetPoint" />
          </mxGeometry>
        </mxCell>
        <mxCell id="zR9AkgcWk_SplZUq-Iif-44" value="Cliente" style="swimlane;childLayout=stackLayout;horizontal=1;startSize=30;horizontalStack=0;rounded=1;fontSize=14;fontStyle=0;strokeWidth=2;resizeParent=0;resizeLast=1;shadow=0;dashed=0;align=center;" parent="1" vertex="1">
          <mxGeometry x="590" y="60" width="180" height="200" as="geometry" />
        </mxCell>
        <mxCell id="zR9AkgcWk_SplZUq-Iif-45" value="Chiave Cliente (SK)&#xa;Codice Cliente&#xa;Tipologia Cliente&#xa;Nome Cliente&#xa;Cognome Cliente&#xa;Numero telefono&#xa;Indirizzo&#xa;Ragione Sociale&#xa;Nome Persona Riferimento&#xa;Cognome Persona Riferimento&#xa;# data inizio, data fine, &#xa;+ flag attuale/ultimo&#xa;+ professione" style="align=left;strokeColor=none;fillColor=none;spacingLeft=4;fontSize=12;verticalAlign=top;resizable=0;rotatable=0;part=1;" parent="zR9AkgcWk_SplZUq-Iif-44" vertex="1">
          <mxGeometry y="30" width="180" height="170" as="geometry" />
        </mxCell>
        <mxCell id="zR9AkgcWk_SplZUq-Iif-46" value="" style="endArrow=none;html=1;rounded=0;entryX=-0.017;entryY=0.558;entryDx=0;entryDy=0;entryPerimeter=0;" parent="1" target="zR9AkgcWk_SplZUq-Iif-45" edge="1">
          <mxGeometry relative="1" as="geometry">
            <mxPoint x="494" y="270" as="sourcePoint" />
            <mxPoint x="654" y="270" as="targetPoint" />
          </mxGeometry>
        </mxCell>
        <mxCell id="zR9AkgcWk_SplZUq-Iif-48" value="Contratto" style="swimlane;childLayout=stackLayout;horizontal=1;startSize=30;horizontalStack=0;rounded=1;fontSize=14;fontStyle=0;strokeWidth=2;resizeParent=0;resizeLast=1;shadow=0;dashed=0;align=center;" parent="1" vertex="1">
          <mxGeometry x="600" y="410" width="160" height="160" as="geometry" />
        </mxCell>
        <mxCell id="zR9AkgcWk_SplZUq-Iif-50" value="" style="endArrow=none;html=1;rounded=0;entryX=0;entryY=0.5;entryDx=0;entryDy=0;" parent="zR9AkgcWk_SplZUq-Iif-48" target="zR9AkgcWk_SplZUq-Iif-49" edge="1">
          <mxGeometry relative="1" as="geometry">
            <mxPoint x="-106" y="50" as="sourcePoint" />
            <mxPoint x="54" y="50" as="targetPoint" />
          </mxGeometry>
        </mxCell>
        <mxCell id="zR9AkgcWk_SplZUq-Iif-49" value="Chiave Contratto (SK)&#xa;Codice Contratto&#xa;Tipologia Contratto&#xa;Indirizzo locale&#xa;Data inizio fornitura&#xa;Data Stipula Contratto&#xa;KW massimi&#xa;Tempo massimo intervento" style="align=left;strokeColor=none;fillColor=none;spacingLeft=4;fontSize=12;verticalAlign=top;resizable=0;rotatable=0;part=1;" parent="zR9AkgcWk_SplZUq-Iif-48" vertex="1">
          <mxGeometry y="30" width="160" height="130" as="geometry" />
        </mxCell>
        <mxCell id="zR9AkgcWk_SplZUq-Iif-51" value="Contatore" style="swimlane;childLayout=stackLayout;horizontal=1;startSize=30;horizontalStack=0;rounded=1;fontSize=14;fontStyle=0;strokeWidth=2;resizeParent=0;resizeLast=1;shadow=0;dashed=0;align=center;" parent="1" vertex="1">
          <mxGeometry x="90" y="390" width="160" height="270" as="geometry" />
        </mxCell>
        <mxCell id="zR9AkgcWk_SplZUq-Iif-52" value="Chiave Contatore (SK)&#xa;Codice Contatore&#xa;Modello&#xa;KW massimi erogabili&#xa;Data installazione&#xa;Codice Lettura -&gt; Fact&#xa;KW letti (Consumi in F)&#xa;Data lettura&#xa;Matricola operatore-&gt; +D&#xa;Nome Operatore-&gt; +D&#xa;Cognome Operatore&gt; +D&#xa;Numero Telefono operatore  +D&#xa;(Codice Area Geografica)&#xa;(Nome area geografica)&#xa;(Codice città)&#xa;(Nome città)" style="align=left;strokeColor=none;fillColor=none;spacingLeft=4;fontSize=12;verticalAlign=top;resizable=0;rotatable=0;part=1;" parent="zR9AkgcWk_SplZUq-Iif-51" vertex="1">
          <mxGeometry y="30" width="160" height="240" as="geometry" />
        </mxCell>
        <mxCell id="zR9AkgcWk_SplZUq-Iif-53" value="" style="endArrow=none;html=1;rounded=0;exitX=1.004;exitY=0.543;exitDx=0;exitDy=0;exitPerimeter=0;entryX=-0.011;entryY=0.982;entryDx=0;entryDy=0;entryPerimeter=0;" parent="1" source="zR9AkgcWk_SplZUq-Iif-52" target="zR9AkgcWk_SplZUq-Iif-28" edge="1">
          <mxGeometry relative="1" as="geometry">
            <mxPoint x="174" y="544.41" as="sourcePoint" />
            <mxPoint x="334" y="544.41" as="targetPoint" />
          </mxGeometry>
        </mxCell>
        <mxCell id="bBOMno06F9_-9BjDVsVX-1" value="Operatore" style="swimlane;childLayout=stackLayout;horizontal=1;startSize=30;horizontalStack=0;rounded=1;fontSize=14;fontStyle=0;strokeWidth=2;resizeParent=0;resizeLast=1;shadow=0;dashed=0;align=center;" parent="1" vertex="1">
          <mxGeometry x="300" y="700" width="160" height="120" as="geometry" />
        </mxCell>
        <mxCell id="bBOMno06F9_-9BjDVsVX-2" value="+Attribute1&#xa;+Attribute2&#xa;+Attribute3" style="align=left;strokeColor=none;fillColor=none;spacingLeft=4;fontSize=12;verticalAlign=top;resizable=0;rotatable=0;part=1;" parent="bBOMno06F9_-9BjDVsVX-1" vertex="1">
          <mxGeometry y="30" width="160" height="90" as="geometry" />
        </mxCell>
      </root>
    </mxGraphModel>
  </diagram>
  <diagram name="Copy of Pagina-2" id="06k_hXyru1FPZO6y9ls8">
    <mxGraphModel dx="1566" dy="617" grid="1" gridSize="10" guides="1" tooltips="1" connect="1" arrows="1" fold="1" page="1" pageScale="1" pageWidth="827" pageHeight="1169" math="0" shadow="0">
      <root>
        <mxCell id="MkPqTFWNN01vZXdFBFYq-0" />
        <mxCell id="MkPqTFWNN01vZXdFBFYq-1" parent="MkPqTFWNN01vZXdFBFYq-0" />
        <mxCell id="MkPqTFWNN01vZXdFBFYq-2" value="L2_FACT_Bolletta" style="swimlane;fontStyle=0;childLayout=stackLayout;horizontal=1;startSize=26;horizontalStack=0;resizeParent=1;resizeParentMax=0;resizeLast=0;collapsible=1;marginBottom=0;align=center;fontSize=14;" parent="MkPqTFWNN01vZXdFBFYq-1" vertex="1">
          <mxGeometry x="334" y="104" width="160" height="446" as="geometry" />
        </mxCell>
        <mxCell id="MkPqTFWNN01vZXdFBFYq-3" value="Chiave Tempo (FK)" style="text;strokeColor=none;fillColor=none;spacingLeft=4;spacingRight=4;overflow=hidden;rotatable=0;points=[[0,0.5],[1,0.5]];portConstraint=eastwest;fontSize=12;" parent="MkPqTFWNN01vZXdFBFYq-2" vertex="1">
          <mxGeometry y="26" width="160" height="30" as="geometry" />
        </mxCell>
        <mxCell id="vDcjD59WCFF6cKzVsAc6-4" value="Chiave Operatore (FK)" style="text;strokeColor=none;fillColor=none;spacingLeft=4;spacingRight=4;overflow=hidden;rotatable=0;points=[[0,0.5],[1,0.5]];portConstraint=eastwest;fontSize=12;" parent="MkPqTFWNN01vZXdFBFYq-2" vertex="1">
          <mxGeometry y="56" width="160" height="24" as="geometry" />
        </mxCell>
        <mxCell id="MkPqTFWNN01vZXdFBFYq-4" value="Chiave Cliente (FK)&#xa;" style="text;strokeColor=none;fillColor=none;spacingLeft=4;spacingRight=4;overflow=hidden;rotatable=0;points=[[0,0.5],[1,0.5]];portConstraint=eastwest;fontSize=12;" parent="MkPqTFWNN01vZXdFBFYq-2" vertex="1">
          <mxGeometry y="80" width="160" height="30" as="geometry" />
        </mxCell>
        <mxCell id="MkPqTFWNN01vZXdFBFYq-5" value="Chiave Contratto (FK)&#xa;" style="text;strokeColor=none;fillColor=none;spacingLeft=4;spacingRight=4;overflow=hidden;rotatable=0;points=[[0,0.5],[1,0.5]];portConstraint=eastwest;fontSize=12;" parent="MkPqTFWNN01vZXdFBFYq-2" vertex="1">
          <mxGeometry y="110" width="160" height="24" as="geometry" />
        </mxCell>
        <mxCell id="MkPqTFWNN01vZXdFBFYq-6" value="Chiave Contatore (FK)" style="text;strokeColor=none;fillColor=none;spacingLeft=4;spacingRight=4;overflow=hidden;rotatable=0;points=[[0,0.5],[1,0.5]];portConstraint=eastwest;fontSize=12;" parent="MkPqTFWNN01vZXdFBFYq-2" vertex="1">
          <mxGeometry y="134" width="160" height="24" as="geometry" />
        </mxCell>
        <mxCell id="MkPqTFWNN01vZXdFBFYq-7" value="Data Emissione&#xa;" style="text;strokeColor=none;fillColor=none;spacingLeft=4;spacingRight=4;overflow=hidden;rotatable=0;points=[[0,0.5],[1,0.5]];portConstraint=eastwest;fontSize=12;" parent="MkPqTFWNN01vZXdFBFYq-2" vertex="1">
          <mxGeometry y="158" width="160" height="24" as="geometry" />
        </mxCell>
        <mxCell id="MkPqTFWNN01vZXdFBFYq-8" value="Periodo di riferimento" style="text;strokeColor=none;fillColor=none;spacingLeft=4;spacingRight=4;overflow=hidden;rotatable=0;points=[[0,0.5],[1,0.5]];portConstraint=eastwest;fontSize=12;" parent="MkPqTFWNN01vZXdFBFYq-2" vertex="1">
          <mxGeometry y="182" width="160" height="24" as="geometry" />
        </mxCell>
        <mxCell id="MkPqTFWNN01vZXdFBFYq-9" value="Data scadenza pagamento" style="text;strokeColor=none;fillColor=none;spacingLeft=4;spacingRight=4;overflow=hidden;rotatable=0;points=[[0,0.5],[1,0.5]];portConstraint=eastwest;fontSize=12;" parent="MkPqTFWNN01vZXdFBFYq-2" vertex="1">
          <mxGeometry y="206" width="160" height="24" as="geometry" />
        </mxCell>
        <mxCell id="MkPqTFWNN01vZXdFBFYq-10" value="Consumo fascia 1" style="text;strokeColor=none;fillColor=none;spacingLeft=4;spacingRight=4;overflow=hidden;rotatable=0;points=[[0,0.5],[1,0.5]];portConstraint=eastwest;fontSize=12;" parent="MkPqTFWNN01vZXdFBFYq-2" vertex="1">
          <mxGeometry y="230" width="160" height="24" as="geometry" />
        </mxCell>
        <mxCell id="MkPqTFWNN01vZXdFBFYq-11" value="Consumo fascia 2" style="text;strokeColor=none;fillColor=none;spacingLeft=4;spacingRight=4;overflow=hidden;rotatable=0;points=[[0,0.5],[1,0.5]];portConstraint=eastwest;fontSize=12;" parent="MkPqTFWNN01vZXdFBFYq-2" vertex="1">
          <mxGeometry y="254" width="160" height="24" as="geometry" />
        </mxCell>
        <mxCell id="MkPqTFWNN01vZXdFBFYq-12" value="Consumo fascia 3" style="text;strokeColor=none;fillColor=none;spacingLeft=4;spacingRight=4;overflow=hidden;rotatable=0;points=[[0,0.5],[1,0.5]];portConstraint=eastwest;fontSize=12;" parent="MkPqTFWNN01vZXdFBFYq-2" vertex="1">
          <mxGeometry y="278" width="160" height="24" as="geometry" />
        </mxCell>
        <mxCell id="MkPqTFWNN01vZXdFBFYq-13" value="Prezzo KWh fascia 1" style="text;strokeColor=none;fillColor=none;spacingLeft=4;spacingRight=4;overflow=hidden;rotatable=0;points=[[0,0.5],[1,0.5]];portConstraint=eastwest;fontSize=12;" parent="MkPqTFWNN01vZXdFBFYq-2" vertex="1">
          <mxGeometry y="302" width="160" height="24" as="geometry" />
        </mxCell>
        <mxCell id="MkPqTFWNN01vZXdFBFYq-14" value="Prezzo Kwh fascia 2" style="text;strokeColor=none;fillColor=none;spacingLeft=4;spacingRight=4;overflow=hidden;rotatable=0;points=[[0,0.5],[1,0.5]];portConstraint=eastwest;fontSize=12;" parent="MkPqTFWNN01vZXdFBFYq-2" vertex="1">
          <mxGeometry y="326" width="160" height="24" as="geometry" />
        </mxCell>
        <mxCell id="MkPqTFWNN01vZXdFBFYq-15" value="Prezzo KWh fascia 3" style="text;strokeColor=none;fillColor=none;spacingLeft=4;spacingRight=4;overflow=hidden;rotatable=0;points=[[0,0.5],[1,0.5]];portConstraint=eastwest;fontSize=12;" parent="MkPqTFWNN01vZXdFBFYq-2" vertex="1">
          <mxGeometry y="350" width="160" height="24" as="geometry" />
        </mxCell>
        <mxCell id="MkPqTFWNN01vZXdFBFYq-19" value="Totale da pagare" style="text;strokeColor=none;fillColor=none;spacingLeft=4;spacingRight=4;overflow=hidden;rotatable=0;points=[[0,0.5],[1,0.5]];portConstraint=eastwest;fontSize=12;" parent="MkPqTFWNN01vZXdFBFYq-2" vertex="1">
          <mxGeometry y="374" width="160" height="24" as="geometry" />
        </mxCell>
        <mxCell id="vDcjD59WCFF6cKzVsAc6-0" value="CodiceLettura(DD)" style="text;strokeColor=none;fillColor=none;spacingLeft=4;spacingRight=4;overflow=hidden;rotatable=0;points=[[0,0.5],[1,0.5]];portConstraint=eastwest;fontSize=12;" parent="MkPqTFWNN01vZXdFBFYq-2" vertex="1">
          <mxGeometry y="398" width="160" height="24" as="geometry" />
        </mxCell>
        <mxCell id="Knd_ywgOaqIi8t9F18qc-0" value="Professione Cliente Attuale" style="text;strokeColor=none;fillColor=none;spacingLeft=4;spacingRight=4;overflow=hidden;rotatable=0;points=[[0,0.5],[1,0.5]];portConstraint=eastwest;fontSize=12;" parent="MkPqTFWNN01vZXdFBFYq-2" vertex="1">
          <mxGeometry y="422" width="160" height="24" as="geometry" />
        </mxCell>
        <mxCell id="MkPqTFWNN01vZXdFBFYq-20" value="L2_DIM_Tempo" style="swimlane;childLayout=stackLayout;horizontal=1;startSize=30;horizontalStack=0;rounded=1;fontSize=14;fontStyle=0;strokeWidth=2;resizeParent=0;resizeLast=1;shadow=0;dashed=0;align=center;" parent="MkPqTFWNN01vZXdFBFYq-1" vertex="1">
          <mxGeometry x="90" y="60" width="160" height="180" as="geometry" />
        </mxCell>
        <mxCell id="MkPqTFWNN01vZXdFBFYq-21" value="Chiave Tempo (SK)&#xa;Data&#xa;Anno&#xa;Mese&#xa;Giorno&#xa;Descrizione data&#xa;Giorno della settimana&#xa;Descrizione mese-anno&#xa;Weekday(o weekend)&#xa;&#xa;" style="align=left;strokeColor=none;fillColor=none;spacingLeft=4;fontSize=12;verticalAlign=top;resizable=0;rotatable=0;part=1;" parent="MkPqTFWNN01vZXdFBFYq-20" vertex="1">
          <mxGeometry y="30" width="160" height="150" as="geometry" />
        </mxCell>
        <mxCell id="MkPqTFWNN01vZXdFBFYq-22" value="" style="endArrow=none;html=1;rounded=0;entryX=0.007;entryY=-0.236;entryDx=0;entryDy=0;entryPerimeter=0;" parent="MkPqTFWNN01vZXdFBFYq-1" target="MkPqTFWNN01vZXdFBFYq-5" edge="1">
          <mxGeometry relative="1" as="geometry">
            <mxPoint x="250" y="170" as="sourcePoint" />
            <mxPoint x="410" y="170" as="targetPoint" />
          </mxGeometry>
        </mxCell>
        <mxCell id="MkPqTFWNN01vZXdFBFYq-23" value="L2_DIM_Cliente" style="swimlane;childLayout=stackLayout;horizontal=1;startSize=30;horizontalStack=0;rounded=1;fontSize=14;fontStyle=0;strokeWidth=2;resizeParent=0;resizeLast=1;shadow=0;dashed=0;align=center;" parent="MkPqTFWNN01vZXdFBFYq-1" vertex="1">
          <mxGeometry x="590" y="60" width="270" height="200" as="geometry" />
        </mxCell>
        <mxCell id="MkPqTFWNN01vZXdFBFYq-24" value="Chiave Cliente (SK)&#xa;Codice Cliente&#xa;Tipologia Cliente&#xa;Nome Cliente&#xa;Cognome Cliente&#xa;Indirizzo - type1&#xa;Cognome Persona Riferimento (ragione sociale)&#xa;data inizio, data fine, &#xa;flag attuale/ultimo&#xa;professione (storicizzato) type2" style="align=left;strokeColor=none;fillColor=none;spacingLeft=4;fontSize=12;verticalAlign=top;resizable=0;rotatable=0;part=1;" parent="MkPqTFWNN01vZXdFBFYq-23" vertex="1">
          <mxGeometry y="30" width="270" height="170" as="geometry" />
        </mxCell>
        <mxCell id="MkPqTFWNN01vZXdFBFYq-25" value="" style="endArrow=none;html=1;rounded=0;entryX=-0.002;entryY=0.555;entryDx=0;entryDy=0;entryPerimeter=0;exitX=1.001;exitY=0.762;exitDx=0;exitDy=0;exitPerimeter=0;" parent="MkPqTFWNN01vZXdFBFYq-1" source="MkPqTFWNN01vZXdFBFYq-5" target="MkPqTFWNN01vZXdFBFYq-24" edge="1">
          <mxGeometry relative="1" as="geometry">
            <mxPoint x="494" y="270" as="sourcePoint" />
            <mxPoint x="654" y="270" as="targetPoint" />
          </mxGeometry>
        </mxCell>
        <mxCell id="MkPqTFWNN01vZXdFBFYq-26" value="L2_DIM_Contratto" style="swimlane;childLayout=stackLayout;horizontal=1;startSize=30;horizontalStack=0;rounded=1;fontSize=14;fontStyle=0;strokeWidth=2;resizeParent=0;resizeLast=1;shadow=0;dashed=0;align=center;" parent="MkPqTFWNN01vZXdFBFYq-1" vertex="1">
          <mxGeometry x="600" y="330" width="160" height="160" as="geometry" />
        </mxCell>
        <mxCell id="MkPqTFWNN01vZXdFBFYq-27" value="" style="endArrow=none;html=1;rounded=0;entryX=-0.008;entryY=0.349;entryDx=0;entryDy=0;entryPerimeter=0;" parent="MkPqTFWNN01vZXdFBFYq-26" target="MkPqTFWNN01vZXdFBFYq-28" edge="1">
          <mxGeometry relative="1" as="geometry">
            <mxPoint x="-106" y="50" as="sourcePoint" />
            <mxPoint x="54" y="50" as="targetPoint" />
          </mxGeometry>
        </mxCell>
        <mxCell id="MkPqTFWNN01vZXdFBFYq-28" value="Chiave Contratto (SK)&#xa;Codice Contratto&#xa;Tipologia Contratto&#xa;Data inizio fornitura&#xa;KW massimi&#xa;Tempo massimo intervento" style="align=left;strokeColor=none;fillColor=none;spacingLeft=4;fontSize=12;verticalAlign=top;resizable=0;rotatable=0;part=1;" parent="MkPqTFWNN01vZXdFBFYq-26" vertex="1">
          <mxGeometry y="30" width="160" height="130" as="geometry" />
        </mxCell>
        <mxCell id="MkPqTFWNN01vZXdFBFYq-29" value="L2_DIM_Contatore" style="swimlane;childLayout=stackLayout;horizontal=1;startSize=30;horizontalStack=0;rounded=1;fontSize=14;fontStyle=0;strokeWidth=2;resizeParent=0;resizeLast=1;shadow=0;dashed=0;align=center;" parent="MkPqTFWNN01vZXdFBFYq-1" vertex="1">
          <mxGeometry x="90" y="260" width="160" height="130" as="geometry" />
        </mxCell>
        <mxCell id="MkPqTFWNN01vZXdFBFYq-30" value="Chiave Contatore (SK)&#xa;Codice Contatore&#xa;Ultimi KW letti &#xa; Data lettura ultimi KW&#xa;Nome area geografica" style="align=left;strokeColor=none;fillColor=none;spacingLeft=4;fontSize=12;verticalAlign=top;resizable=0;rotatable=0;part=1;" parent="MkPqTFWNN01vZXdFBFYq-29" vertex="1">
          <mxGeometry y="30" width="160" height="100" as="geometry" />
        </mxCell>
        <mxCell id="MkPqTFWNN01vZXdFBFYq-31" value="" style="endArrow=none;html=1;rounded=0;exitX=1.004;exitY=0.543;exitDx=0;exitDy=0;exitPerimeter=0;entryX=0.033;entryY=0.024;entryDx=0;entryDy=0;entryPerimeter=0;" parent="MkPqTFWNN01vZXdFBFYq-1" source="MkPqTFWNN01vZXdFBFYq-30" target="MkPqTFWNN01vZXdFBFYq-10" edge="1">
          <mxGeometry relative="1" as="geometry">
            <mxPoint x="174" y="544.41" as="sourcePoint" />
            <mxPoint x="330" y="333" as="targetPoint" />
          </mxGeometry>
        </mxCell>
        <mxCell id="MkPqTFWNN01vZXdFBFYq-32" value="L2_DIM_Operatore" style="swimlane;childLayout=stackLayout;horizontal=1;startSize=30;horizontalStack=0;rounded=1;fontSize=14;fontStyle=0;strokeWidth=2;resizeParent=0;resizeLast=1;shadow=0;dashed=0;align=center;" parent="MkPqTFWNN01vZXdFBFYq-1" vertex="1">
          <mxGeometry x="90" y="410" width="160" height="160" as="geometry" />
        </mxCell>
        <mxCell id="MkPqTFWNN01vZXdFBFYq-33" value="Chiave Operatore&#xa;Matricola operatore&#xa;Nome Operatore&#xa; Cognome Operatore &#xa;&#xa;Numero Telefono operatore&#xa;" style="align=left;strokeColor=none;fillColor=none;spacingLeft=4;fontSize=12;verticalAlign=top;resizable=0;rotatable=0;part=1;" parent="MkPqTFWNN01vZXdFBFYq-32" vertex="1">
          <mxGeometry y="30" width="160" height="130" as="geometry" />
        </mxCell>
        <mxCell id="vDcjD59WCFF6cKzVsAc6-3" value="" style="endArrow=none;html=1;rounded=0;exitX=1;exitY=0.25;exitDx=0;exitDy=0;entryX=0;entryY=0.5;entryDx=0;entryDy=0;" parent="MkPqTFWNN01vZXdFBFYq-1" source="MkPqTFWNN01vZXdFBFYq-33" target="MkPqTFWNN01vZXdFBFYq-14" edge="1">
          <mxGeometry relative="1" as="geometry">
            <mxPoint x="252.39999999999986" y="422.93999999999994" as="sourcePoint" />
            <mxPoint x="334" y="557.068" as="targetPoint" />
          </mxGeometry>
        </mxCell>
      </root>
    </mxGraphModel>
  </diagram>
</mxfile>
